<?xml version="1.0" encoding="UTF-8"?>
<svg id="Capa_1" data-name="Capa 1" xmlns="http://www.w3.org/2000/svg" viewBox="0 0 727 727">
  <defs>
    <style>
      .cls-1 {
        isolation: isolate;
        opacity: .09;
      }

      .cls-1, .cls-2, .cls-3, .cls-4, .cls-5, .cls-6 {
        stroke-width: 0px;
      }

      .cls-1, .cls-6 {
        fill: #007eaf;
      }

      .cls-2 {
        fill: #f7f7f7;
      }

      .cls-3 {
        fill: #d8d8d8;
      }

      .cls-4 {
        fill: #f5f5f5;
      }

      .cls-5 {
        fill: #008bce;
      }
    </style>
  </defs>
  <g id="Capa_2" data-name="Capa 2">
    <g id="Capa_1-2" data-name="Capa 1-2">
      <g id="Fiestas">
        <circle class="cls-2" cx="362.8" cy="363.5" r="349.6"/>
        <g id="notificacion">
          <path class="cls-3" d="m399.7,547.8c0-32.5-26.4-58.9-58.9-58.9s-58.9,26.4-58.9,58.9,26.4,58.9,58.9,58.9,58.9-26.3,58.9-58.9Z"/>
          <path class="cls-1" d="m340.3,488.9c-5.8,0-11.6.8-17.2,2.5,31.2,9.2,49,42,39.7,73.1-5.7,19.1-20.6,34.1-39.7,39.7,5.6,1.7,11.4,2.5,17.2,2.5,32.5,0,58.9-26.4,58.9-58.9,0-32.5-26.4-58.9-58.9-58.9Z"/>
          <path class="cls-3" d="m347.7,203.8c-19.1,3.8-37.8-8.6-41.6-27.7-3.8-19.1,8.6-37.8,27.7-41.6s37.7,8.5,41.6,27.6c3.8,19.1-8.6,37.8-27.7,41.7Z"/>
          <path class="cls-1" d="m373.9,162.2c-3.8-19.1-22.3-31.5-41.4-27.7h0c-1.8.3-3.5.8-5.2,1.5,18.3,6.8,27.7,27.2,20.9,45.6-3.6,9.7-11.2,17.3-20.9,20.9,6.1,2.3,12.7,2.8,19,1.5,19.2-4,31.5-22.6,27.6-41.8Z"/>
          <path class="cls-3" d="m194.82,538c-25.97-.1-47.05-21.3-46.95-47.3h0c0-14.4,6.49-28.1,17.68-37.3l9.29-7.5c21.58-17.6,34.06-43.9,34.16-71.8v-49.6c0-73.4,59.03-132.7,132.05-132.7s131.95,59.3,131.95,132.7v50.7c-.1,27.3,11.96,53.2,32.89,70.7l9.07,7.7c10.86,9.1,17.04,22.5,17.04,36.7v.4c.1,26-20.93,47.2-46.84,47.3h.03H194.82Z"/>
          <path class="cls-1" d="m514.82,453.6l-9.04-7.7c-20.76-17.5-32.78-43.4-32.78-70.7v-51.38c0-73.2-58.94-132.34-131.64-132.34-12.57,0-25.03,1.8-37,5.29,56.25,16.75,94.74,68.42,94.64,127.06v51.38c-.1,27.3,11.96,53.2,32.89,70.7l9.07,7.7c10.86,9.1,17.04,22.5,17.04,36.7v.4c.1,26-20.93,47.2-46.84,47.3h74.16c25.82-.1,46.78-21.3,46.68-47.3h0v-.4c-.2-14.2-6.46-27.6-17.18-36.7Z"/>
          <path class="cls-5" d="m577.9,217c0-63.1-51.1-114.2-114.2-114.2s-114.1,51.2-114.1,114.2,51.1,114.2,114.2,114.2,114.1-51.1,114.1-114.2h0Z"/>
          <path class="cls-6" d="m494.7,107.3c51.3,36.6,63.3,107.8,26.7,159.1-21.4,30-55.9,47.8-92.7,47.9-10.3,0-20.6-1.4-30.5-4.1,51.4,36.3,122.6,24.1,158.9-27.3s24.1-122.6-27.3-158.9c-10.7-7.6-22.6-13.2-35.1-16.7Z"/>
          <path class="cls-4" d="m472,262.1c0,4.31-3.25,8.08-7.55,8.34-4.61.28-8.35-3.3-8.45-7.84v-76.22l-2.88,2.68c-3.18,2.98-8.25,2.78-11.23-.5l-.1-.1c-2.88-3.08-2.78-8.05.4-10.93q.1-.1.2-.2l16.3-14.81c2.39-2.09,5.76-2.58,8.65-1.29,2.88,1.29,4.67,4.07,4.67,7.16v93.71Z"/>
        </g>
      </g>
    </g>
  </g>
</svg>