<?xml version="1.0" encoding="utf-8"?>
<!-- Generator: $$$/GeneralStr/196=Adobe Illustrator 27.6.0, SVG Export Plug-In . SVG Version: 6.00 Build 0)  -->
<svg version="1.1" id="Capa_1" xmlns="http://www.w3.org/2000/svg" xmlns:xlink="http://www.w3.org/1999/xlink" x="0px" y="0px"
	 viewBox="0 0 47.2 43.9" style="enable-background:new 0 0 47.2 43.9;" xml:space="preserve">
<style type="text/css">
	.st0{fill:#282828;}
	.st1{fill:#008BCE;}
	.st2{fill:url(#SVGID_1_);}
</style>
<g id="Capa_2_00000122700179948615206360000004450774456987743387_">
	<g id="Trophy">
		<path class="st0" d="M15.5,22.5c-6-2.4-10.3-8-10.3-15.7c0-1.1,0.9-1.9,1.9-1.9h6.7c0.4,0,0.6,0.4,0.6,0.7c0,0.3-0.3,0.6-0.6,0.6
			H7.1c-0.4,0-0.6,0.3-0.6,0.6v0.6c0,6.2,3.7,11.7,9.4,14c0.4,0.1,0.6,0.5,0.4,0.8C16.2,22.5,15.8,22.7,15.5,22.5
			C15.6,22.5,15.5,22.5,15.5,22.5z"/>
		<path class="st0" d="M34.1,3.4h-21c-0.7,0-1.3-0.6-1.3-1.3s0.6-1.3,1.3-1.3h21.1c0.7,0,1.3,0.6,1.3,1.3S34.9,3.4,34.1,3.4z"/>
		<path class="st0" d="M26.9,29.1h-6.6c-0.7,0.1-1.4-0.5-1.4-1.2s0.5-1.4,1.2-1.4c0.1,0,0.1,0,0.2,0h6.6c0.7-0.1,1.4,0.5,1.4,1.2
			c0.1,0.7-0.5,1.4-1.2,1.4C27,29.1,27,29.1,26.9,29.1z"/>
		<rect x="20.4" y="29.1" class="st1" width="6.6" height="4"/>
		<path class="st0" d="M16.8,33.1h13.8c1.3,0,2.3,1,2.3,2.3V43l0,0H14.4l0,0v-7.6C14.4,34.1,15.5,33.1,16.8,33.1z"/>
		<path class="st0" d="M34.1,42.9h-21c-0.4,0-0.6-0.4-0.6-0.7s0.3-0.6,0.6-0.6h21.1c0.4,0,0.6,0.4,0.6,0.7
			C34.7,42.6,34.4,42.9,34.1,42.9z"/>
		<rect x="16.4" y="35.1" class="st0" width="14.5" height="6.6"/>
		<path class="st1" d="M27.6,37.7h-7.9c-0.4,0-0.6-0.4-0.6-0.7s0.3-0.6,0.6-0.6h7.9c0.4,0,0.6,0.4,0.6,0.7
			C28.1,37.4,27.9,37.7,27.6,37.7z"/>
		<path class="st1" d="M28.9,40.3H18.3c-0.4,0-0.6-0.3-0.6-0.6S18,39,18.3,39h10.5c0.4,0,0.6,0.3,0.6,0.6S29.2,40.3,28.9,40.3z"/>
		
			<linearGradient id="SVGID_1_" gradientUnits="userSpaceOnUse" x1="25.6597" y1="-753.6085" x2="25.9874" y2="-753.6085" gradientTransform="matrix(1 0 0 -1 0 -739.8898)">
			<stop  offset="0" style="stop-color:#133759"/>
			<stop  offset="1" style="stop-color:#004C66"/>
		</linearGradient>
		<path class="st2" d="M32,22.5c5.8-2.4,10-8,10-15.7c0-1.1-0.8-1.9-1.9-1.9h-6.4c-0.4,0-0.6,0.4-0.6,0.7c0,0.3,0.3,0.6,0.6,0.6h6.4
			c0.4,0,0.6,0.3,0.6,0.6l0,0v0.6c0.1,6.1-3.6,11.7-9.2,14c-0.4,0.2-0.5,0.6-0.3,0.8C31.4,22.5,31.7,22.6,32,22.5z"/>
		<path class="st0" d="M32.5,22.5c5.5-2.4,9.5-8,9.5-15.7c0-1-0.7-1.9-1.8-1.9H34c-0.4,0-0.6,0.3-0.6,0.6s0.3,0.6,0.6,0.6l0,0h6.1
			c0.4,0,0.6,0.3,0.6,0.6l0,0v0.6c0,6.2-3.4,11.7-8.7,14C31.3,21.6,31.7,22.9,32.5,22.5z"/>
		<path class="st1" d="M23.6,27.2c-5.8,0-10.5-4.7-10.5-10.5l0,0V3.4h21.1v13.1C34.1,22.5,29.4,27.2,23.6,27.2L23.6,27.2z"/>
		<path class="st0" d="M25.9,14.4l0.6,1.9c0.1,0.4,0,0.7-0.4,0.8c-0.2,0.1-0.5,0.1-0.6-0.1L24,16c-0.3-0.2-0.6-0.2-0.7,0l-1.6,1.1
			c-0.3,0.2-0.7,0.2-0.9-0.2c-0.1-0.2-0.2-0.5-0.1-0.6l0.6-1.9c0.1-0.3,0-0.6-0.2-0.7l-1.4-1.2c-0.3-0.3-0.3-0.6-0.1-0.9
			c0.1-0.2,0.3-0.2,0.5-0.2h1.8c0.3,0,0.6-0.2,0.6-0.5L23,9.5c0.1-0.4,0.5-0.6,0.8-0.4c0.2,0.1,0.4,0.2,0.4,0.4l0.5,1.4
			c0.1,0.3,0.4,0.5,0.6,0.5H27c0.4,0,0.6,0.3,0.6,0.6c0,0.2-0.1,0.4-0.2,0.5L26,13.7C25.9,13.8,25.8,14.1,25.9,14.4z"/>
	</g>
</g>
</svg>
