<?xml version="1.0" encoding="utf-8"?>
<!-- Generator: $$$/GeneralStr/196=Adobe Illustrator 27.6.0, SVG Export Plug-In . SVG Version: 6.00 Build 0)  -->
<svg version="1.1" id="Capa_1" xmlns="http://www.w3.org/2000/svg" xmlns:xlink="http://www.w3.org/1999/xlink" x="0px" y="0px"
	 viewBox="0 0 57 42.8" style="enable-background:new 0 0 57 42.8;" xml:space="preserve">
<style type="text/css">
	.st0{fill:#008BCE;}
	.st1{fill:url(#SVGID_1_);}
	.st2{fill:url(#SVGID_00000007403469946112978070000013200170313684272307_);}
	.st3{fill:url(#SVGID_00000065771108712112481590000000142131325162406809_);}
	.st4{fill:url(#SVGID_00000155145675045141045650000011211876348130631590_);}
	.st5{fill:url(#SVGID_00000172438086567130299900000012150632296381484169_);}
	.st6{fill:#282828;}
	.st7{fill:url(#SVGID_00000174585021481951919270000010803750506324051384_);}
	.st8{fill:#FFFFFF;}
</style>
<g id="Capa_2_00000023278289425528148540000011056222204457011891_">
	<g id="Certificate">
		<path class="st0" d="M2,0h49.4c1.1,0,2,0.9,2,2v31.6c0,1.1-0.9,2-2,2H2c-1.1,0-2-0.9-2-2V2C0,0.9,0.9,0,2,0z"/>
		
			<linearGradient id="SVGID_1_" gradientUnits="userSpaceOnUse" x1="2.67" y1="26.165" x2="50.77" y2="26.165" gradientTransform="matrix(1 0 0 -1 0 44)">
			<stop  offset="0" style="stop-color:#FFFFFF"/>
			<stop  offset="1" style="stop-color:#FFFFFF"/>
		</linearGradient>
		<path class="st1" d="M50.8,29.4V6.2c-2,0-3.6-1.6-3.6-3.5c0,0,0,0,0,0h-41c0,2-1.6,3.5-3.5,3.6v23.2c2,0,3.6,1.6,3.6,3.6
			c0,0,0,0,0,0.1h41C47.2,31,48.8,29.4,50.8,29.4C50.8,29.4,50.8,29.4,50.8,29.4z"/>
		
			<linearGradient id="SVGID_00000074411078722822599330000008162790878637894333_" gradientUnits="userSpaceOnUse" x1="8.01" y1="35.1" x2="29.36" y2="35.1" gradientTransform="matrix(1 0 0 -1 0 44)">
			<stop  offset="0" style="stop-color:#474F72"/>
			<stop  offset="1" style="stop-color:#878C9F"/>
		</linearGradient>
		<path style="fill:url(#SVGID_00000074411078722822599330000008162790878637894333_);" d="M28.5,9.8H8.9C8.4,9.8,8,9.4,8,8.9
			C8,8.4,8.4,8,8.9,8h19.6c0.5,0,0.9,0.4,0.9,0.9C29.4,9.4,29,9.8,28.5,9.8z"/>
		
			<linearGradient id="SVGID_00000156547447801604295600000005299259833712067516_" gradientUnits="userSpaceOnUse" x1="8.0204" y1="30.64" x2="43.6396" y2="30.64" gradientTransform="matrix(1 0 0 -1 0 44)">
			<stop  offset="0" style="stop-color:#474F72"/>
			<stop  offset="1" style="stop-color:#878C9F"/>
		</linearGradient>
		<path style="fill:url(#SVGID_00000156547447801604295600000005299259833712067516_);" d="M42.8,14.2H8.9c-0.5,0-0.9-0.4-0.9-0.9
			c0-0.5,0.4-0.9,0.9-0.9h33.8c0.5,0,0.9,0.4,0.9,0.9C43.6,13.9,43.2,14.2,42.8,14.2z"/>
		
			<linearGradient id="SVGID_00000155141753866963103790000018314498284060813193_" gradientUnits="userSpaceOnUse" x1="8.02" y1="26.19" x2="36.51" y2="26.19" gradientTransform="matrix(1 0 0 -1 0 44)">
			<stop  offset="0" style="stop-color:#474F72"/>
			<stop  offset="1" style="stop-color:#878C9F"/>
		</linearGradient>
		<path style="fill:url(#SVGID_00000155141753866963103790000018314498284060813193_);" d="M35.6,18.7H8.9c-0.5,0-0.9-0.4-0.9-0.9
			c0-0.5,0.4-0.9,0.9-0.9h26.7c0.5,0,0.9,0.4,0.9,0.9C36.5,18.3,36.1,18.7,35.6,18.7z"/>
		
			<linearGradient id="SVGID_00000074413097956049111260000000761006627552120454_" gradientUnits="userSpaceOnUse" x1="8.03" y1="21.735" x2="29.38" y2="21.735" gradientTransform="matrix(1 0 0 -1 0 44)">
			<stop  offset="0" style="stop-color:#474F72"/>
			<stop  offset="1" style="stop-color:#878C9F"/>
		</linearGradient>
		<path style="fill:url(#SVGID_00000074413097956049111260000000761006627552120454_);" d="M28.5,23.2H8.9c-0.5-0.1-0.9-0.5-0.8-1
			c0-0.4,0.4-0.8,0.8-0.8h19.6c0.5,0.1,0.9,0.5,0.8,1C29.3,22.8,28.9,23.1,28.5,23.2z"/>
		<polygon class="st6" points="44.5,26.7 44.5,42.8 49,40.1 53.4,42.8 53.4,26.7 		"/>
		
			<linearGradient id="SVGID_00000163044821410282629450000005088079599888343455_" gradientUnits="userSpaceOnUse" x1="8.02" y1="15.218" x2="19.59" y2="15.218" gradientTransform="matrix(1 0 0 -1 0 44)">
			<stop  offset="0" style="stop-color:#474F72"/>
			<stop  offset="1" style="stop-color:#878C9F"/>
		</linearGradient>
		<path style="fill:url(#SVGID_00000163044821410282629450000005088079599888343455_);" d="M18.7,30.3h-2.2c-1.7,0-2-1.8-2.6-1.1
			c-0.8,0.8-2.2,0.8-3,0c-0.3-0.3-0.4-0.1-1.4,0.9c-0.3,0.3-0.9,0.3-1.3,0s-0.3-0.9,0-1.3l0.9-0.9c0.8-0.8,2.2-0.8,3,0
			c0.1,0.1,0.3,0.2,0.4,0.1c0,0,0.1-0.1,0.1-0.1c0.8-0.8,2.2-0.8,3,0l0.5,0.5c0.1,0.1,0.1,0.1,2.4,0.1c0.5,0,0.9,0.4,0.9,0.9
			C19.5,29.9,19.2,30.3,18.7,30.3L18.7,30.3z"/>
		<path class="st6" d="M56.2,27.7c-1.5,1.5-0.2,2.5-1.6,3.8c-1.4,1.4-2.3,0.1-3.8,1.6c-1,1-2.7,1-3.7,0c-1.5-1.5-2.5-0.2-3.8-1.6
			s-0.1-2.3-1.6-3.8c-1-1-1-2.7,0-3.7c1.5-1.5,0.2-2.4,1.6-3.8s2.3-0.1,3.8-1.6c1-1,2.7-1,3.7,0c1.5,1.5,2.5,0.2,3.8,1.6
			s0.1,2.3,1.6,3.8C57.3,25,57.3,26.6,56.2,27.7z"/>
		<circle class="st8" cx="49" cy="25.8" r="5.3"/>
	</g>
</g>
</svg>
