<?xml version="1.0" encoding="utf-8"?>
<!-- Generator: Adobe Illustrator 28.0.0, SVG Export Plug-In . SVG Version: 6.00 Build 0)  -->
<svg version="1.1" id="Capa_1" xmlns="http://www.w3.org/2000/svg" xmlns:xlink="http://www.w3.org/1999/xlink" x="0px" y="0px"
	 viewBox="0 0 15 18" style="enable-background:new 0 0 15 18;" xml:space="preserve">
<style type="text/css">
	.st0{fill:#282828;}
</style>
<path class="st0" d="M12.8,6V5.2c0-1.4-0.6-2.7-1.5-3.7c-1-1-2.3-1.5-3.7-1.5S4.8,0.6,3.8,1.5c-1,1-1.5,2.3-1.5,3.7V6H0v9.8
	c0,0.6,0.2,1.2,0.7,1.6c0.4,0.4,1,0.7,1.6,0.7h10.5c0.6,0,1.2-0.2,1.6-0.7c0.4-0.4,0.7-1,0.7-1.6V6H12.8z M3.8,5.2
	c0-1,0.4-1.9,1.1-2.7s1.7-1.1,2.7-1.1s1.9,0.4,2.7,1.1c0.7,0.7,1.1,1.7,1.1,2.7V6H3.8V5.2z M13.5,15.8c0,0.2-0.1,0.4-0.2,0.5
	c-0.1,0.1-0.3,0.2-0.5,0.2H2.2c-0.2,0-0.4-0.1-0.5-0.2c-0.1-0.1-0.2-0.3-0.2-0.5V7.5h12V15.8z"/>
<path class="st0" d="M8.3,10.5H6.8v3h1.5V10.5z"/>
</svg>
