<?xml version="1.0" encoding="utf-8"?>
<!-- Generator: Adobe Illustrator 28.0.0, SVG Export Plug-In . SVG Version: 6.00 Build 0)  -->
<svg version="1.1" id="Capa_1" xmlns="http://www.w3.org/2000/svg" xmlns:xlink="http://www.w3.org/1999/xlink" x="0px" y="0px"
	 viewBox="0 0 26 26" style="enable-background:new 0 0 26 26;" xml:space="preserve">
<style type="text/css">
	.st0{fill:#FFFFFF;stroke:#282828;}
	.st1{fill:#282828;stroke:#282828;stroke-miterlimit:10;}
</style>
<path class="st0" d="M13,0.5L13,0.5c6.9,0,12.5,5.6,12.5,12.5l0,0c0,6.9-5.6,12.5-12.5,12.5l0,0C6.1,25.5,0.5,19.9,0.5,13l0,0
	C0.5,6.1,6.1,0.5,13,0.5z"/>
<path class="st1" d="M17.5,12.1c0.7,0.4,0.7,1.3,0,1.7l-6,3.5c-0.7,0.4-1.5-0.1-1.5-0.9V9.5c0-0.8,0.8-1.3,1.5-0.9L17.5,12.1z"/>
</svg>
