<?xml version="1.0" encoding="utf-8"?>
<!-- Generator: $$$/GeneralStr/196=Adobe Illustrator 27.6.0, SVG Export Plug-In . SVG Version: 6.00 Build 0)  -->
<svg version="1.1" id="Capa_1" xmlns="http://www.w3.org/2000/svg" xmlns:xlink="http://www.w3.org/1999/xlink" x="0px" y="0px"
	 viewBox="0 0 46 34.7" style="enable-background:new 0 0 46 34.7;" xml:space="preserve">
<style type="text/css">
	.st0{fill:#008BCE;}
	.st1{fill:#282828;}
	.st2{fill:url(#SVGID_1_);}
	.st3{fill:#D7F1FF;}
	.st4{fill:url(#SVGID_00000041974972081398548490000004512647597011722907_);}
	.st5{fill:url(#SVGID_00000098915672425137321590000003969035053756548285_);}
	.st6{fill:url(#SVGID_00000135665447296303297260000015649762113421217180_);}
	.st7{fill:url(#SVGID_00000122707901726890253780000010352605724578269879_);}
	.st8{fill:url(#SVGID_00000039099589876483015080000014112040445419473588_);}
</style>
<g id="Capa_2_00000048493545548777525260000015127632758377984415_">
	<g id="Book_Pen">
		<path class="st0" d="M10.7,1h19.7c0.8,0,1.5,0.7,1.5,1.5v28.7c0,0.8-0.7,1.5-1.5,1.5H10.7l0,0V1L10.7,1z"/>
		<path class="st1" d="M10.7,1L10.7,1L10.7,1v31.7l0,0l0,0c-2.3,0-4.2-1.9-4.2-4.2V5.3C6.4,2.9,8.3,1,10.7,1z"/>
		
			<linearGradient id="SVGID_1_" gradientUnits="userSpaceOnUse" x1="16.5201" y1="221.1277" x2="31.8768" y2="221.1277" gradientTransform="matrix(1 0 0 1 0 -196.1102)">
			<stop  offset="0" style="stop-color:#949AAF"/>
			<stop  offset="1" style="stop-color:#C6CCDA"/>
		</linearGradient>
		<polygon class="st2" points="31.9,17.4 31.9,22 21.3,32.6 16.5,32.6 		"/>
		<path class="st3" d="M15.1,4.7h12.3c0.4,0,0.7,0.3,0.7,0.7v5.9c0,0.4-0.3,0.7-0.7,0.7H15.1c-0.4,0-0.7-0.3-0.7-0.7V5.4
			C14.4,5,14.7,4.7,15.1,4.7z"/>
		
			<linearGradient id="SVGID_00000142890600465658904020000017807541106100605842_" gradientUnits="userSpaceOnUse" x1="16.0002" y1="202.91" x2="26.5744" y2="202.91" gradientTransform="matrix(1 0 0 1 0 -196.1102)">
			<stop  offset="0" style="stop-color:#474F72"/>
			<stop  offset="1" style="stop-color:#878C9F"/>
		</linearGradient>
		<path style="fill:url(#SVGID_00000142890600465658904020000017807541106100605842_);" d="M26,7.3h-9.5C16.2,7.3,16,7,16,6.8
			s0.2-0.4,0.5-0.5H26c0.3,0,0.5,0.3,0.5,0.6C26.5,7.1,26.3,7.3,26,7.3z"/>
		
			<linearGradient id="SVGID_00000067206965981453140600000010983863241769396396_" gradientUnits="userSpaceOnUse" x1="17.0469" y1="205.5891" x2="25.5079" y2="205.5891" gradientTransform="matrix(1 0 0 1 0 -196.1102)">
			<stop  offset="0" style="stop-color:#474F72"/>
			<stop  offset="1" style="stop-color:#878C9F"/>
		</linearGradient>
		<path style="fill:url(#SVGID_00000067206965981453140600000010983863241769396396_);" d="M25,10h-7.5C17.2,10,17,9.7,17,9.5
			C17,9.1,17.3,9,17.5,9H25c0.3,0,0.5,0.2,0.5,0.5C25.5,9.7,25.3,10,25,10z"/>
		<rect x="33.5" y="5.3" class="st1" width="3.1" height="24.2"/>
		
			<linearGradient id="SVGID_00000009554937231816705120000000005554827999490739_" gradientUnits="userSpaceOnUse" x1="32.9411" y1="207.6911" x2="40.3542" y2="207.6911" gradientTransform="matrix(1 0 0 1 0 -196.1102)">
			<stop  offset="0" style="stop-color:#949AAF"/>
			<stop  offset="1" style="stop-color:#C6CCDA"/>
		</linearGradient>
		<path style="fill:url(#SVGID_00000009554937231816705120000000005554827999490739_);" d="M39.8,19c-0.2,0-0.2-0.1-0.4-0.2
			c-1.1-1.2-1.7-2.6-1.7-4.2V6.3c0-0.6-0.5-1.1-1.1-1.1h-3.2c-0.3,0-0.5-0.2-0.5-0.5c0-0.3,0.2-0.5,0.5-0.5l0,0h3.2
			c1.2,0,2.2,1,2.2,2.1v8.3c0,1.3,0.5,2.6,1.4,3.5c0.2,0.2,0.2,0.6,0,0.7C40.1,18.9,40,19,39.8,19z"/>
		<path d="M36.6,4.2h-3.2V2.6C33.3,1.7,34,1,34.9,1c0.9-0.1,1.7,0.6,1.7,1.5c0,0.1,0,0.2,0,0.2L36.6,4.2z"/>
		
			<linearGradient id="SVGID_00000075855306000665310460000007638101019807875735_" gradientUnits="userSpaceOnUse" x1="34.5254" y1="228.2169" x2="35.5865" y2="228.2169" gradientTransform="matrix(1 0 0 1 0 -196.1102)">
			<stop  offset="0" style="stop-color:#474F72"/>
			<stop  offset="1" style="stop-color:#878C9F"/>
		</linearGradient>
		<polygon style="fill:url(#SVGID_00000075855306000665310460000007638101019807875735_);" points="35.6,31.6 35.1,32.6 34.5,31.6 
					"/>
		
			<linearGradient id="SVGID_00000103226952722510669060000009323737246306178448_" gradientUnits="userSpaceOnUse" x1="33.4717" y1="226.6507" x2="36.6477" y2="226.6507" gradientTransform="matrix(1 0 0 1 0 -196.1102)">
			<stop  offset="0" style="stop-color:#D4D8E1"/>
			<stop  offset="1" style="stop-color:#F3F4F5"/>
		</linearGradient>
		<polygon style="fill:url(#SVGID_00000103226952722510669060000009323737246306178448_);" points="36.6,29.5 35.6,31.6 34.5,31.6 
			33.5,29.5 		"/>
		<path d="M34.5,19.5v-5.3c0-0.3,0.2-0.5,0.5-0.5c0.3,0,0.5,0.2,0.5,0.5v5.3c0,0.3-0.2,0.5-0.6,0.5C34.7,20,34.5,19.8,34.5,19.5
			L34.5,19.5z"/>
	</g>
</g>
</svg>
