<?xml version="1.0" encoding="utf-8"?>
<!-- Generator: $$$/GeneralStr/196=Adobe Illustrator 27.6.0, SVG Export Plug-In . SVG Version: 6.00 Build 0)  -->
<svg version="1.1" id="Capa_1" xmlns="http://www.w3.org/2000/svg" xmlns:xlink="http://www.w3.org/1999/xlink" x="0px" y="0px"
	 viewBox="0 0 77.8 62.8" style="enable-background:new 0 0 77.8 62.8;" xml:space="preserve">
<style type="text/css">
	.st0{fill:#008BCE;}
	.st1{fill:url(#SVGID_1_);}
</style>
<g id="Capa_2_00000035489557601393925700000015344884046613143969_">
	<g id="Mortar_hat">
		<path class="st0" d="M59.9,48.8l-3.5,4v11.9l0.6-0.7c0.3-0.4,0.8-0.4,1.2,0c0,0,0,0,0,0c0.3,0.4,0.8,0.4,1.2,0
			c0.3-0.4,0.8-0.4,1.2,0c0.3,0.4,0.8,0.4,1.2,0c0.3-0.4,0.8-0.4,1.2,0l0.6,0.7V52.8L59.9,48.8z"/>
		<polygon points="63.4,21.9 63.4,49.8 38.9,61.7 14.4,49.8 14.4,21.9 		"/>
		
			<linearGradient id="SVGID_1_" gradientUnits="userSpaceOnUse" x1="1.5607" y1="34.068" x2="76.2787" y2="34.068" gradientTransform="matrix(1 0 0 -1 0 56)">
			<stop  offset="0" style="stop-color:#231F20"/>
			<stop  offset="1" style="stop-color:#878C9F"/>
		</linearGradient>
		<polygon class="st1" points="38.9,3.4 1.6,21.9 38.9,40.5 76.3,21.9 		"/>
		<path class="st0" d="M59.9,59.1c-0.6,0-1.2-0.6-1.2-1.3v-27l-20.3-9c-0.6-0.3-0.8-1.1-0.6-1.8c0.2-0.6,0.8-0.9,1.4-0.7l21,9.3
			c0.4,0.2,0.7,0.7,0.7,1.2v27.9C61.1,58.5,60.6,59.1,59.9,59.1z"/>
		<ellipse class="st0" cx="38.9" cy="20.6" rx="3.5" ry="2.7"/>
		<ellipse class="st0" cx="59.9" cy="48.8" rx="2.3" ry="2.7"/>
	</g>
</g>
</svg>
