<?xml version="1.0" encoding="UTF-8"?>
<svg id="Capa_1" data-name="Capa 1" xmlns="http://www.w3.org/2000/svg" viewBox="0 0 100 100">
  <defs>
    <style>
      .cls-1 {
        fill: #f3f3f3;
      }

      .cls-1, .cls-2, .cls-3, .cls-4, .cls-5, .cls-6 {
        stroke-width: 0px;
      }

      .cls-2 {
        fill: #472b29;
      }

      .cls-3 {
        fill: #282828;
      }

      .cls-4 {
        fill: #fdfcef;
      }

      .cls-5 {
        fill: #fff;
      }

      .cls-6 {
        fill: #e2e2e2;
      }
    </style>
  </defs>
  <path class="cls-1" d="m87.23,55.55c.3-.62.57-1.26.8-1.94,2.63-7.77-1.35-17.08-9.73-19.33-.91-11.38-8.91-19.19-17.94-20.52-10.34-1.52-19.81,5.04-22.97,15.48-3.8-1.35-7.5-1.18-10.99.86-1.58.73-3.03,1.81-4.33,3.23-1.91,2.09-3.15,4.72-3.65,7.49-.75.12-1.48.24-2.18.48-4.04,1.45-6.59,4.43-7.29,8.92-.44,2.8.44,5.59.93,6.71,1.94,4.45,6.42,6.98,10.98,6.31.23-.03.56.07.75.23.24,7.12,3.7,13.42,8.88,17.01,8.32,5.77,19.03,3.99,25.78-3.92,2.89,2.96,6.34,4.4,10.38,3.88,4.02-.52,7.15-2.74,9.43-6.35,1.05.28,2.05.69,3.08.8,4.04.44,7.3-1.18,9.73-4.8.08-.12.2-.22.31-.33.35-.8.7-1.6,1.04-2.39.15-1.21.43-2.42.44-3.63.04-3.26-1.29-6.22-3.47-8.21Z"/>
  <path class="cls-5" d="m19.9,49h-10.03c-.28,0-.5-.22-.5-.5s.22-.5.5-.5h10.03c.28,0,.5.22.5.5s-.22.5-.5.5Zm3.38-.5c0-.28-.22-.5-.5-.5h-1.45c-.28,0-.5.22-.5.5s.22.5.5.5h1.45c.28,0,.5-.22.5-.5Zm4.05,0c0-.28-.22-.5-.5-.5h-2.55c-.28,0-.5.22-.5.5s.22.5.5.5h2.55c.28,0,.5-.22.5-.5Zm0,2c0-.28-.22-.5-.5-.5h-9.62c-.28,0-.5.22-.5.5s.22.5.5.5h9.62c.28,0,.5-.22.5-.5Zm-11.35,0c0-.28-.22-.5-.5-.5h-.58c-.28,0-.5.22-.5.5s.22.5.5.5h.58c.28,0,.5-.22.5-.5Zm-2.38,0c0-.28-.22-.5-.5-.5h-1.46c-.28,0-.5.22-.5.5s.22.5.5.5h1.46c.28,0,.5-.22.5-.5Zm9.14-4c0-.28-.22-.5-.5-.5h-5.03c-.28,0-.5.22-.5.5s.22.5.5.5h5.03c.28,0,.5-.22.5-.5Zm0-2c0-.28-.22-.5-.5-.5h-1.26c-.28,0-.5.22-.5.5s.22.5.5.5h1.26c.28,0,.5-.22.5-.5Zm-3.27,8c0-.28-.22-.5-.5-.5h-1.76c-.28,0-.5.22-.5.5s.22.5.5.5h1.76c.28,0,.5-.22.5-.5Zm53.52-25.5h-10c-.28,0-.5-.22-.5-.5s.22-.5.5-.5h10c.28,0,.5.22.5.5s-.22.5-.5.5Zm4,0h-2c-.28,0-.5-.22-.5-.5s.22-.5.5-.5h2c.28,0,.5.22.5.5s-.22.5-.5.5Zm5,2h-10c-.28,0-.5-.22-.5-.5s.22-.5.5-.5h10c.28,0,.5.22.5.5s-.22.5-.5.5Zm-12,0h-1c-.28,0-.5-.22-.5-.5s.22-.5.5-.5h1c.28,0,.5.22.5.5s-.22.5-.5.5Zm-3.12,0h-1.88c-.28,0-.5-.22-.5-.5s.22-.5.5-.5h1.88c.28,0,.5.22.5.5s-.22.5-.5.5Zm9.12-4h-5c-.28,0-.5-.22-.5-.5s.22-.5.5-.5h5c.28,0,.5.22.5.5s-.22.5-.5.5Zm-3,6h-2c-.28,0-.5-.22-.5-.5s.22-.5.5-.5h2c.28,0,.5.22.5.5s-.22.5-.5.5Z"/>
  <path class="cls-5" d="m70.67,59.42h-11.76c-2.7,0-4.89-2.19-4.89-4.89,0-2.35,1.67-4.32,3.88-4.78-.03-.21-.04-.42-.04-.63,0-2.8,2.27-5.06,5.06-5.06,1.65,0,3.11.79,4.04,2.02.24-3.11,3.02-5.51,6.27-5.12,2.38.29,4.35,2.13,4.78,4.49.14.76.13,1.49-.01,2.18.64-.69,1.55-1.12,2.56-1.12,1.85,0,3.36,1.44,3.48,3.26.84-.19,1.75-.17,2.72.19,1.84.69,3.15,2.42,3.23,4.39.11,2.79-2.12,5.08-4.89,5.08h-11.27"/>
  <path class="cls-3" d="m58.91,59.92h11.76c.28,0,.5-.22.5-.5s-.22-.5-.5-.5h-11.76c-2.42,0-4.39-1.97-4.39-4.39,0-2.07,1.47-3.87,3.49-4.3.26-.05.43-.29.39-.55-.02-.19-.04-.37-.04-.56,0-2.52,2.05-4.56,4.56-4.56,1.44,0,2.77.66,3.64,1.82.12.17.34.24.54.18.2-.06.34-.23.36-.44.1-1.38.78-2.67,1.85-3.55,1.08-.89,2.46-1.28,3.86-1.11,2.17.27,3.96,1.94,4.35,4.08.12.67.12,1.33-.01,1.99-.04.22.06.44.26.54.2.1.44.06.6-.1.57-.62,1.35-.96,2.19-.96,1.57,0,2.88,1.23,2.98,2.79.01.15.08.28.2.37.12.09.27.12.41.09.84-.19,1.64-.13,2.43.17,1.67.63,2.83,2.21,2.9,3.94.05,1.21-.39,2.35-1.22,3.22-.83.87-1.96,1.35-3.16,1.35h-11.27c-.28,0-.5.22-.5.5s.22.5.5.5h11.27c1.48,0,2.86-.59,3.88-1.65,1.03-1.07,1.56-2.47,1.5-3.95-.08-2.13-1.51-4.07-3.55-4.83-.8-.3-1.63-.4-2.47-.3-.38-1.82-2-3.18-3.9-3.18-.68,0-1.35.18-1.94.51,0-.39-.04-.77-.11-1.16-.48-2.56-2.62-4.57-5.21-4.89-1.68-.21-3.32.27-4.62,1.33-1,.82-1.72,1.95-2.04,3.19-1.01-.92-2.32-1.43-3.71-1.43-3.07,0-5.56,2.5-5.56,5.56,0,.08,0,.17,0,.25-2.25.67-3.85,2.78-3.85,5.16,0,2.97,2.42,5.39,5.39,5.39Z"/>
  <path class="cls-4" d="m73.51,48.65c1.81-.12,3.36,1.13,3.48,2.79.01.21,0,.41-.03.61.35-.39.86-.66,1.46-.7,1.08-.07,2.02.65,2.16,1.62.2-.05.4-.09.62-.1,1.58-.1,2.94.99,3.04,2.44"/>
  <path class="cls-3" d="m84.23,55.56s.01,0,.02,0c.14,0,.24-.13.23-.27-.11-1.59-1.59-2.79-3.31-2.67-.14,0-.27.03-.41.05-.27-.97-1.26-1.65-2.37-1.57-.43.03-.82.16-1.16.38,0-.02,0-.04,0-.06-.12-1.79-1.79-3.16-3.74-3.02-.14,0-.24.13-.23.27,0,.14.12.26.27.23,1.65-.1,3.11,1.04,3.21,2.56.01.18,0,.37-.02.55-.02.11.04.22.14.26s.22.02.29-.06c.32-.37.78-.58,1.29-.62.95-.03,1.78.56,1.89,1.4.01.07.05.13.11.17.06.04.13.05.2.03.19-.05.38-.08.57-.1,1.44-.09,2.69.9,2.78,2.21.01.13.12.23.25.23Z"/>
  <path class="cls-4" d="m56.93,50.32c1.7-.8,3.66-.23,4.39,1.27.09.19.16.38.2.57"/>
  <path class="cls-2" d="m61.52,52.41s.04,0,.06,0c.13-.03.22-.17.19-.3-.05-.22-.12-.43-.22-.63-.78-1.62-2.9-2.24-4.72-1.38-.12.06-.18.21-.12.33.06.13.21.18.33.12,1.57-.74,3.39-.23,4.06,1.15.08.17.14.34.18.52.03.12.13.19.24.19Z"/>
  <path class="cls-6" d="m50,62.67c-.64,0-1.28-.05-1.92-.15-5.35-.82-9.38-5.38-9.38-10.6v-15.46c0-5.23,4.03-9.79,9.38-10.6.64-.1,1.29-.15,1.92-.15,6.23,0,11.3,4.69,11.3,10.45v16.06c0,5.76-5.07,10.45-11.3,10.45Zm0-33.01c-.51,0-1.03.05-1.54.16-3.13.64-5.4,3.38-5.4,6.52v15.7c0,3.14,2.27,5.89,5.4,6.52.51.1,1.03.16,1.54.16h0c1.84,0,3.58-.67,4.89-1.89,1.32-1.23,2.05-2.87,2.05-4.61v-16.06c0-3.58-3.11-6.5-6.94-6.5Z"/>
  <path class="cls-3" d="m50,25v1.4c5.84,0,10.6,4.38,10.6,9.75v16.06c0,5.38-4.76,9.75-10.6,9.75-.6,0-1.21-.05-1.81-.14-5.01-.77-8.78-5.03-8.78-9.91v-15.46c0-4.89,3.78-9.15,8.78-9.91.6-.09,1.21-.14,1.81-.14v-1.4m0,34.42c4.21,0,7.64-3.23,7.64-7.2v-16.06c0-3.97-3.43-7.2-7.64-7.2-.56,0-1.12.06-1.68.17-3.46.7-5.96,3.73-5.96,7.21v15.7c0,3.47,2.51,6.51,5.96,7.21.56.11,1.12.17,1.68.17m0-34.42c-.66,0-1.34.05-2.03.16-5.83.89-9.97,5.8-9.97,11.3v15.46c0,5.49,4.14,10.4,9.97,11.3.69.1,1.36.15,2.03.15,6.62,0,12-5,12-11.15v-16.06c0-6.15-5.38-11.15-12-11.15h0Zm0,33.01c-.46,0-.92-.05-1.4-.14-2.88-.58-4.84-3.1-4.84-5.84v-15.7c0-2.74,1.96-5.25,4.84-5.84.47-.1.94-.14,1.4-.14,3.44,0,6.24,2.6,6.24,5.8v16.06c0,3.2-2.8,5.8-6.24,5.8h0Z"/>
  <g>
    <path class="cls-6" d="m50,41.7c-9,0-16.3,7.3-16.3,16.3s7.3,16.3,16.3,16.3,16.3-7.3,16.3-16.3-7.3-16.3-16.3-16.3Z"/>
    <path class="cls-3" d="m50,42.4c8.6,0,15.6,7,15.6,15.6s-7,15.6-15.6,15.6-15.6-7-15.6-15.6,7-15.6,15.6-15.6m0-1.4c-9.39,0-17,7.61-17,17s7.61,17,17,17,17-7.61,17-17-7.61-17-17-17h0Z"/>
  </g>
  <path class="cls-3" d="m49.3,41.9h.5v32.21h-.5v-32.21Z"/>
  <path class="cls-2" d="m33.45,57.75h32.21v.5h-32.21v-.5Z"/>
  <g>
    <path class="cls-3" d="m37.99,69.21l22.78-22.78.35.35-22.78,22.78-.35-.35Z"/>
    <path class="cls-3" d="m41.29,71.83l16.09-27.9.43.25-16.09,27.9-.43-.25Z"/>
    <path class="cls-3" d="m45.55,73.6l-.48-.13,8.49-31.07.48.13-8.49,31.07Z"/>
    <path class="cls-3" d="m34.1,62.54l-.13-.48,31.04-8.59.13.48-31.04,8.59Z"/>
    <path class="cls-3" d="m35.76,66.31l-.25-.43,27.84-16.2.25.43-27.84,16.2Z"/>
  </g>
  <g>
    <path class="cls-3" d="m37.99,46.79l.35-.35,22.78,22.78-.35.35-22.78-22.78Z"/>
    <path class="cls-3" d="m41.28,44.18l.43-.25,16.11,27.89-.43.25-16.11-27.89Z"/>
    <path class="cls-3" d="m53.56,73.6l-8.49-31.07.48-.13,8.49,31.07-.48.13Z"/>
    <path class="cls-3" d="m65.01,62.54l-31.04-8.59.13-.48,31.04,8.59-.13.48Z"/>
    <path class="cls-3" d="m63.35,66.31l-27.84-16.2.25-.43,27.84,16.2-.25.43Z"/>
  </g>
  <path class="cls-6" d="m50,46.82c-6.18,0-11.19,5-11.19,11.18,0,6.18,5,11.19,11.18,11.19h.01c6.18,0,11.19-5,11.19-11.18,0-6.18-5-11.19-11.18-11.19,0,0,0,0-.01,0Z"/>
  <path class="cls-3" d="m50,69.68c-6.44,0-11.69-5.24-11.69-11.69s5.24-11.68,11.69-11.68c1.34,0,2.65.23,3.91.67.26.09.4.38.31.64-.09.26-.38.4-.64.31-1.15-.41-2.35-.61-3.57-.61-5.89,0-10.69,4.79-10.69,10.69s4.79,10.68,10.69,10.68c1.31,0,2.6-.24,3.81-.7.26-.1.55.03.65.29s-.03.55-.29.65c-1.33.51-2.73.77-4.17.77Z"/>
  <path class="cls-3" d="m58.7,65.53c-.11,0-.22-.04-.31-.11-.22-.17-.25-.49-.07-.7,1.53-1.89,2.37-4.28,2.37-6.71,0-1.46-.29-2.86-.85-4.19-.11-.25,0-.55.26-.66.25-.11.55,0,.66.26.62,1.45.93,2.99.93,4.58,0,2.67-.92,5.27-2.6,7.34-.1.12-.24.18-.39.18Z"/>
  <path class="cls-3" d="m58.56,51.3c-.14,0-.28-.06-.38-.18-.61-.73-1.32-1.38-2.11-1.92-.23-.16-.28-.47-.13-.69.16-.23.47-.28.69-.13.86.59,1.63,1.3,2.31,2.1.18.21.15.53-.06.71-.09.08-.21.12-.32.12Z"/>
  <g>
    <path class="cls-5" d="m48.3,61.75l.78-4.08c.02-.1-.02-.19-.1-.25-.46-.33-.73-.86-.73-1.42,0-.97.78-1.75,1.75-1.75s1.75.78,1.75,1.75c0,.56-.27,1.09-.73,1.42-.08.06-.12.15-.1.25l.78,4.08h-3.4Z"/>
    <path class="cls-3" d="m50,54.5c.83,0,1.5.67,1.5,1.5,0,.48-.23.93-.63,1.21-.16.11-.24.31-.2.5l.72,3.79h-2.79l.72-3.79c.04-.19-.04-.38-.2-.5-.4-.29-.62-.73-.62-1.21,0-.83.67-1.5,1.5-1.5m0-.5c-1.1,0-2,.9-2,2,0,.67.33,1.26.83,1.62l-.83,4.38h4l-.83-4.38c.5-.36.83-.95.83-1.62,0-1.1-.9-2-2-2h0Z"/>
  </g>
  <g>
    <path class="cls-5" d="m41.18,77.29h3.54c2.11,0,3.82-1.67,3.82-3.74,0-1.8-1.3-3.31-3.03-3.66.02-.16.03-.32.03-.48,0-2.14-1.77-3.87-3.96-3.87-1.29,0-2.43.61-3.15,1.54-.19-2.38-2.36-4.22-4.9-3.91-1.86.22-3.4,1.63-3.74,3.43-.11.58-.1,1.14.01,1.67-.5-.53-1.21-.86-2-.86-1.45,0-2.63,1.1-2.72,2.49-.66-.14-1.37-.13-2.12.14-1.44.53-2.46,1.85-2.52,3.36-.08,2.13,1.66,3.89,3.82,3.89h8.81m1.64,0h.36"/>
    <path class="cls-3" d="m44.72,77.79h-3.54c-.28,0-.5-.22-.5-.5s.22-.5.5-.5h3.54c1.83,0,3.32-1.45,3.32-3.24,0-1.52-1.11-2.86-2.64-3.17-.26-.05-.43-.29-.4-.55.02-.14.03-.28.03-.42,0-1.86-1.55-3.37-3.46-3.37-1.09,0-2.1.49-2.76,1.35-.13.16-.34.23-.54.17-.2-.06-.34-.23-.35-.44-.08-1.02-.56-1.94-1.37-2.6-.83-.68-1.88-.98-2.97-.85-1.65.2-3.01,1.44-3.31,3.03-.09.5-.09.99,0,1.47.05.22-.06.44-.26.54-.2.1-.44.06-.59-.1-.43-.45-1.01-.7-1.64-.7-1.17,0-2.15.89-2.22,2.03-.01.15-.08.28-.2.37-.12.09-.26.12-.41.09-.64-.14-1.24-.1-1.85.12-1.26.46-2.14,1.63-2.19,2.9-.03.88.28,1.71.9,2.35.64.66,1.5,1.02,2.42,1.02h8.81c.28,0,.5.22.5.5s-.22.5-.5.5h-8.81c-1.18,0-2.33-.49-3.14-1.33-.8-.84-1.22-1.93-1.17-3.08.07-1.68,1.21-3.2,2.85-3.81.61-.22,1.24-.3,1.88-.24.34-1.4,1.63-2.42,3.14-2.42.49,0,.98.11,1.41.32,0-.24.04-.48.08-.73.38-2.01,2.1-3.58,4.17-3.83,1.37-.17,2.69.22,3.73,1.07.75.61,1.28,1.41,1.55,2.3.79-.65,1.79-1.01,2.84-1.01,2.46,0,4.46,1.96,4.46,4.37,0,.03,0,.07,0,.1,1.76.56,3,2.19,3,4.04,0,2.34-1.94,4.24-4.32,4.24Zm-9.66,0h-.36c-.28,0-.5-.22-.5-.5s.22-.5.5-.5h.36c.28,0,.5.22.5.5s-.22.5-.5.5Z"/>
    <path class="cls-3" d="m43.01,71.98s-.04,0-.06,0c-.13-.03-.22-.16-.19-.3.04-.16.09-.32.17-.48.6-1.22,2.27-1.68,3.72-1.01.12.06.18.21.12.33-.06.13-.21.18-.33.12-1.2-.56-2.58-.21-3.06.77-.06.12-.1.24-.13.37-.03.12-.13.2-.24.2Z"/>
    <path class="cls-3" d="m37.85,77.79h-1.11c-.28,0-.5-.22-.5-.5s.22-.5.5-.5h1.11c.28,0,.5.22.5.5s-.22.5-.5.5Z"/>
  </g>
</svg>