<?xml version="1.0" encoding="utf-8"?>
<!-- Generator: Adobe Illustrator 28.0.0, SVG Export Plug-In . SVG Version: 6.00 Build 0)  -->
<svg version="1.1" id="Object" xmlns="http://www.w3.org/2000/svg" xmlns:xlink="http://www.w3.org/1999/xlink" x="0px" y="0px"
	 viewBox="0 0 4680 3120" style="enable-background:new 0 0 4680 3120;" xml:space="preserve">
<style type="text/css">
	.st0{fill:#E9F2FF;}
	.st1{fill:#C4C4C4;}
	.st2{fill:#939393;}
	.st3{fill:#CEDCED;}
	.st4{fill:#FFFFFF;}
	.st5{fill:#008BCE;}
	.st6{fill:#0097D3;}
	.st7{fill:#E2E2E2;}
	.st8{fill:#BAC9D6;}
	.st9{fill:#FFAD92;}
	.st10{fill:#EB7154;}
	.st11{fill:#AAAAAA;}
	.st12{fill:#00B3F9;}
	.st13{font-family:'MyriadPro-Regular';}
	.st14{font-size:12px;}
</style>
<g>
	<g>
		<path class="st0" d="M3441.1,300.6v2009.2c0,86.9-70.5,157.4-157.4,157.4H185.3c-86.9,0-157.4-70.5-157.4-157.4V300.6
			c0-86.9,70.5-157.4,157.4-157.4h3098.4C3370.8,143.2,3441.1,213.7,3441.1,300.6z"/>
		<path class="st1" d="M3441.1,300.6v97.3H27.9v-97.3c0-86.9,70.5-157.4,157.4-157.4h3098.4C3370.8,143.2,3441.1,213.7,3441.1,300.6
			z"/>
		<circle class="st2" cx="164.2" cy="270.6" r="39.3"/>
		<circle class="st3" cx="288.2" cy="270.6" r="39.3"/>
		<circle class="st4" cx="411.5" cy="270.6" r="39.3"/>
		<g>
			<path class="st2" d="M3400.3,400H68.7c-1.1,0-2.1-1-2.1-2.1s1-2.1,2.1-2.1h3331.5c1.1,0,2.1,1,2.1,2.1
				C3402.4,399.1,3401.5,400,3400.3,400z"/>
		</g>
		<path class="st1" d="M1570,814.7h-107.9c-32.7-52.1-90.7-86.8-156.7-86.8s-124,34.7-156.7,86.8h-107.9
			c-46.3,0-83.8,37.5-83.8,83.8v907.9c0,46.3,37.5,83.8,83.8,83.8H1570c46.3,0,83.8-37.5,83.8-83.8V898.6
			C1653.8,852.2,1616.3,814.7,1570,814.7z"/>
		<path class="st1" d="M2386.8,814.7h-107.9c-32.7-52.1-90.7-86.8-156.7-86.8s-124,34.7-156.7,86.8h-107.9
			c-46.3,0-83.8,37.5-83.8,83.8v907.9c0,46.3,37.5,83.8,83.8,83.8h529.2c46.3,0,83.8-37.5,83.8-83.8V898.6
			C2470.6,852.2,2433,814.7,2386.8,814.7z"/>
		<path class="st1" d="M3200.2,814.7h-107.7c-32.7-52.1-90.7-86.8-156.7-86.8c-66.1,0-124,34.7-156.7,86.8h-107.9
			c-46.3,0-83.8,37.5-83.8,83.8v907.9c0,46.3,37.5,83.8,83.8,83.8h529.2c46.3,0,83.8-37.5,83.8-83.8V898.6
			C3284.1,852.2,3246.5,814.7,3200.2,814.7z"/>
		<path class="st1" d="M758.3,814.7H650.4c-32.7-52.1-90.7-86.8-156.7-86.8s-124,34.7-156.7,86.8H229.1c-46.3,0-83.8,37.5-83.8,83.8
			v907.9c0,46.3,37.5,83.8,83.8,83.8h529.2c46.3,0,83.8-37.5,83.8-83.8V898.6C842.3,852.2,804.6,814.7,758.3,814.7z"/>
		<path class="st1" d="M2223.9,2091.4H1188.3c-42.3,0-76.5,34.3-76.5,76.5v91c0,42.3,34.3,76.5,76.5,76.5h1035.6
			c42.3,0,76.5-34.3,76.5-76.5v-91C2300.4,2125.7,2266.1,2091.4,2223.9,2091.4z"/>
	</g>
	<g>
		<g>
			<path class="st5" d="M214,1733.2V789.3c0-36.4,29.5-65.9,65.9-65.9h565c36.4,0,65.9,29.5,65.9,65.9v943.9
				c0,36.4-29.5,65.9-65.9,65.9H280C243.4,1799,214,1769.6,214,1733.2z"/>
			<path class="st4" d="M310.6,1233.9v-105.3c0-3.2,2.7-5.9,5.9-5.9h491.7c3.2,0,5.9,2.7,5.9,5.9v105.3c0,3.2-2.7,5.9-5.9,5.9H316.6
				C313.2,1239.8,310.6,1237.2,310.6,1233.9z"/>
			<path class="st5" d="M310.6,1427v-105.3c0-3.2,2.7-5.9,5.9-5.9h491.7c3.2,0,5.9,2.7,5.9,5.9V1427c0,3.2-2.7,5.9-5.9,5.9H316.6
				C313.2,1433.1,310.6,1430.4,310.6,1427z"/>
			<g>
				<path class="st5" d="M408.9,1638.5l96.5-39.2l-96.5-44V1509l157.3,78.6v26.8l-157.3,69.8L408.9,1638.5L408.9,1638.5z"/>
				<path class="st5" d="M716,1722.6H555.5v-38.2H716V1722.6z"/>
			</g>
		</g>
		<g>
			<path class="st5" d="M1842.4,1733.2V789.3c0-36.4,29.5-65.9,65.9-65.9h565c36.4,0,65.9,29.5,65.9,65.9v943.9
				c0,36.4-29.5,65.9-65.9,65.9h-565C1871.9,1799,1842.4,1769.6,1842.4,1733.2z"/>
			<path class="st4" d="M1939.1,1233.9v-105.3c0-3.2,2.7-5.9,5.9-5.9h491.7c3.2,0,5.9,2.7,5.9,5.9v105.3c0,3.2-2.7,5.9-5.9,5.9H1945
				C1941.7,1239.8,1939.1,1237.2,1939.1,1233.9z"/>
			<path class="st6" d="M1939.1,1427v-105.3c0-3.2,2.7-5.9,5.9-5.9h491.7c3.2,0,5.9,2.7,5.9,5.9V1427c0,3.2-2.7,5.9-5.9,5.9H1945
				C1941.7,1433.1,1939.1,1430.4,1939.1,1427z"/>
		</g>
		<g>
			<path class="st7" d="M2655.8,1733.2V789.3c0-36.4,29.5-65.9,65.9-65.9h565c36.4,0,65.9,29.5,65.9,65.9v943.9
				c0,36.4-29.5,65.9-65.9,65.9h-565C2685.5,1799,2655.8,1769.6,2655.8,1733.2z"/>
			<path class="st4" d="M2752.5,1233.9v-105.3c0-3.2,2.7-5.9,5.9-5.9H3250c3.2,0,5.9,2.7,5.9,5.9v105.3c0,3.2-2.7,5.9-5.9,5.9
				h-491.7C2755.1,1239.8,2752.5,1237.2,2752.5,1233.9z"/>
			<path class="st8" d="M2752.5,1427v-105.3c0-3.2,2.7-5.9,5.9-5.9H3250c3.2,0,5.9,2.7,5.9,5.9V1427c0,3.2-2.7,5.9-5.9,5.9h-491.7
				C2755.1,1433.1,2752.5,1430.4,2752.5,1427z"/>
		</g>
	</g>
	<g>
		<g>
			<path class="st1" d="M3205.5,2263.5c-203.8,64.3-406.4,132.4-607.8,204.2c-61.2,13.2-129.1,25.6-186.5-1.8
				c-19.5-9.3-36.8-22.9-53.2-36.8c-120.5-101.8-213.9-235.2-268.5-383.2c-26.3-17.3-47.7-38.1-60.8-64.2
				c-14.3-28.8-36.9-68.1-39.2-100.3c-3.9-59.1-12.1-110.4,16-171.2c74.7-24.9,144.2-60,208.8-102.7c51.8,10,99.7,36.1,134,74.6
				c23.6,26.5,40.6,58.1,59.3,88.3c69.2,112.2,162.8,207.6,236.8,316.7c197-158,581.4-405.3,637.4-403.6
				c34.7,18.4,48.9,48.4,56.9,86.8C3373.9,1938.9,3327,2122.7,3205.5,2263.5z"/>
			<g>
				<path class="st1" d="M2700.6,2174.3c-0.7,0-1.4-0.3-1.8-1l-55.1-86.9c-0.6-1-0.3-2.2,0.7-2.9c1-0.6,2.2-0.3,2.9,0.7l55.1,86.9
					c0.6,1,0.3,2.2-0.7,2.9C2701.3,2174.1,2700.9,2174.3,2700.6,2174.3z"/>
			</g>
			<path class="st9" d="M2162.2,1587.6c-52.2-114.6-104.3-229.2-161.2-339.7c-34.1,56.7-54.6,121.8-61.5,182.6
				c14.7,76.8,34.4,152.8,59.1,229.5c31.5-7.3,62.4-16.9,92.4-28.6C2115.4,1621.5,2139.7,1610.3,2162.2,1587.6z"/>
			<g>
				<path class="st10" d="M1998.6,1514.2c-0.7,0-1.5-0.4-1.8-1.1c-0.6-1-0.1-2.2,0.8-2.8l55.3-29.1c1-0.6,2.2-0.1,2.8,0.8
					c0.6,1,0.1,2.2-0.8,2.8l-55.3,29.1C1999.3,1514.2,1998.9,1514.2,1998.6,1514.2z"/>
			</g>
			<path class="st11" d="M2210.7,1609.6c-3.4-10.7-6.7-21.6-13.2-30.8c-6.5-9.1-16.3-16.7-27.4-17.4c-13.2-0.8-25.1,7.6-36,15
				c-42,29.1-88.6,51.3-137.6,65.6c-6.9,2-14.5,4.5-17.6,10.8c-3.5,7.2,0.4,15.6,4.4,22.6c10.1,18,20.2,36,31.7,54.1
				c55.9-8.6,108-33.4,155.5-64.2C2189.3,1652.9,2219.1,1636.1,2210.7,1609.6z"/>
			<g>
				<path class="st5" d="M1165.7,1659.7l304-893.4c11.8-34.4,49.2-52.9,83.7-41.1l534.9,182c34.4,11.8,52.9,49.2,41.1,83.7
					l-304,893.4c-11.8,34.4-49.2,52.9-83.7,41.1l-534.9-182C1172.4,1731.6,1154,1694.3,1165.7,1659.7z"/>
				<path class="st4" d="M1418,1218.2l34-99.7c1.1-3.1,4.5-4.8,7.6-3.7l465.5,158.4c3.1,1.1,4.8,4.5,3.7,7.6l-34,99.7
					c-1.1,3.1-4.5,4.8-7.6,3.7l-465.5-158.4C1418.6,1224.7,1416.9,1221.3,1418,1218.2z"/>
				<path class="st12" d="M1355.8,1401.2l34-99.7c1.1-3.1,4.5-4.8,7.6-3.7l465.5,158.4c3.1,1.1,4.8,4.5,3.7,7.6l-34,99.7
					c-1.1,3.1-4.5,4.8-7.6,3.7l-465.5-158.6C1356.4,1407.7,1354.7,1404.3,1355.8,1401.2z"/>
				<g>
					<path class="st4" d="M1403.4,1732.5c-6.2-2.1-10.8-7.4-12.1-13.9l-23.7-131.2l35.7-6.5l16.9,93.2L1505,1574
						c4.8-5.8,12.6-7.9,19.7-5.5l181.3,61.7l-11.7,34.4l-169.6-57.7L1423,1727c-4.5,5.3-11.8,7.6-18.5,5.8
						C1404.1,1732.8,1403.7,1732.6,1403.4,1732.5z"/>
				</g>
			</g>
			<path class="st9" d="M2045.2,1152.9c7.9,36.9,21.3,72.6,39.6,105.6c6.5,11.5,13.5,22.8,17.4,35.2
				c16.3,50.4-19.1,102.5-22.6,153.4c-18.5,9.5-38.3,16.3-58.7,16.1c-13.9-11.4-19.2-30.1-22-47.7c-7.7-50.7,1.1-103.6,24.6-155.2
				c-10.3-26-20.6-53.2-17.3-81c1.1-9.5,4.2-19.1,10.8-26C2024,1146.7,2035,1143.5,2045.2,1152.9z"/>
			<g>
				<path class="st10" d="M2010.3,1467.2c-0.8,0-1.7-0.6-2-1.4c-24.6-65-20.1-140.4,12.2-201.9c0.6-1,1.8-1.4,2.8-0.8
					s1.4,1.8,0.8,2.8c-31.7,60.5-36.2,134.7-11.9,198.6c0.4,1.1-0.1,2.2-1.3,2.7C2010.8,1467.1,2010.5,1467.2,2010.3,1467.2z"/>
			</g>
		</g>
		<path class="st1" d="M4259.7,3110.1H3125.9c-11.1-218.1,11.5-446.3,64-667.6c-1-17-1.8-34-2.5-51c0-0.1,0-0.3,0-0.4
			c-1.4-36.2-2.1-72.5-2-108.8c0.8-196.2,24.4-394.6,70.5-587.7c0.3-1.3,0.6-2.7,1-3.9c52.4-22.8,108.7-36.1,164.7-44.2
			c17.6-2.5,35.2-4.6,52.7-6.3c24.2-9.8,48.6-18.7,73.4-26.3c66.4-20.4,134.7-32.7,200.4-37.8c44.2,3.7,88.9,7.9,133.4,13.9
			c87.9,11.8,175.1,31,257,69c30.3,14,60,30.6,88.6,50.4v1.1c-2,242.1,0.1,484.2,6.2,727.3c0,1.1,0,2.4,0.1,3.5
			c0.8,34,1.8,68.1,2.8,102.2c0,1,0,2.1,0.1,3.1c3.9,131.6,8.8,263.7,15,396.2C4254,2998.4,4256.8,3054.3,4259.7,3110.1z"/>
		<g>
			<path class="st1" d="M3364.7,3041.5c-0.7,0-1.5-0.4-1.8-1.1c-0.6-1-0.1-2.2,0.8-2.8c138.5-73.7,264.9-167.4,375.7-278.3
				c0.8-0.8,2.1-0.8,2.9,0s0.8,2.1,0,2.9c-111.2,111.2-237.9,205.2-376.6,279C3365.4,3041.3,3365,3041.5,3364.7,3041.5z"/>
		</g>
		<g>
			<path class="st1" d="M3190.6,2437.7c-1.1,0-2-0.8-2.1-2c-14.5-169.4-8-340.4,19.1-508.2c0.1-1.1,1.3-2,2.4-1.7
				c1.1,0.1,2,1.3,1.7,2.4c-27.1,167.5-33.6,338.2-19.1,507.1C3192.7,2436.5,3191.9,2437.6,3190.6,2437.7
				C3190.7,2437.7,3190.7,2437.7,3190.6,2437.7z"/>
		</g>
		<g>
			<path class="st1" d="M3192.7,2048.2c-0.8,0-1.7-0.6-2-1.4c-9-26.5-15.4-54.2-19-82c-0.1-1.1,0.7-2.2,1.8-2.4
				c1.1-0.1,2.2,0.7,2.4,1.8c3.5,27.5,9.8,54.9,18.8,81.2c0.4,1.1-0.3,2.2-1.3,2.7C3193.3,2048.2,3193,2048.2,3192.7,2048.2z"/>
		</g>
		<path class="st1" d="M3573.7,1908.9c150-5.6,293.9-61.8,426.1-133.1c42.4-22.9,84.7-48,117.1-83.8c13.9-15.3,26.3-34,25.4-54.6
			c-1.4-36.1-40.2-57.6-74.1-69.8c-76.1-27.2-155.6-44.8-239.9-47.2c-74.3-3.5-148.9-1.4-222.9,6.3c-35.4,3.7-71.5,8.8-103.2,25
			c-67.5,34.5-102.8,118-89.7,192.7C3425.7,1819,3477.9,1912.5,3573.7,1908.9z"/>
		<path class="st4" d="M3694.6,1888.1c-5.8,68.3-8.8,137.1-11.7,211.4c2.1,91.3,5.5,182.6,9.5,274.1c-12.4,0.7-24.7,1.5-39.7,0
			c-7.7-161.9-6-324.4,8.6-486.2c0.4-5.3,4.1-10,9.3-11.7c2.7-0.8,5.5-1.5,8.1-2C3687.5,1872.2,3695.3,1879.2,3694.6,1888.1z"/>
		<path class="st11" d="M3635.5,2409.7c10.8,4.6,22,9.4,33.8,10.1c11.8,0.7,24.7-3.7,31-13.8c5.8-9.1,5.1-21.1,2.1-31.5
			c-2.9-10.4-7.9-20.2-10.1-30.9c-2.1-9.8-2.4-21.5-10.3-27.8c-8.7-7-22.6-2.9-29.9,5.6c-7.3,8.6-9.5,20.1-11.7,31.2
			c-3.4,17.7-6.7,35.7-4.9,53.6C3635.5,2408.8,3635.8,2409,3635.5,2409.7z"/>
		<path class="st4" d="M3501.4,1879.2c-21.6,63.5-41.1,128.1-61.5,197.9c-20.4,89-39.3,178.4-57.9,268.2
			c-12.2-2.2-24.4-4.6-38.6-9.7c31.9-158.1,73-314.6,126.4-467.2c2.2-6.6,8.4-11.2,15.4-11.2c0.1,0,0.3,0,0.4,0
			C3497,1857,3505,1868.4,3501.4,1879.2z"/>
		<path class="st11" d="M3318,2366.4c9.4,7.2,19.1,14.6,30.3,18.1c11.4,3.5,24.9,2.4,33.4-5.8c7.9-7.4,10.1-19.1,9.8-30.1
			s-2.7-21.6-2.2-32.4c0.4-10.1,2.9-21.3-3.1-29.5c-6.7-9-21.2-8.4-30.3-2c-9.1,6.6-14.2,17.1-19,27.4c-7.6,16.3-15.2,33-18,50.8
			C3318.1,2365.6,3318.3,2365.7,3318,2366.4z"/>
		<g>
			<path class="st9" d="M3870.9,1374.5c9.7,94.2,14.5,189,8,285.1c36.9,6.3,74.3,10.1,112.1,9.7c-82.4,81.7-190.6,132.6-300.4,170.2
				c-52.9,18.1-111.8,33.4-162.9,13.5c-27.1-21.2-44.9-53.9-48.2-88.1c-3.2-34.3,8.1-69.7,29.2-95.2c8.4-3.9,17.6-6.6,27.4-10
				c16.9-65.4,32.9-130.9,44.9-194.2C3676.5,1432.8,3773.3,1403.9,3870.9,1374.5z"/>
			<path class="st9" d="M3870.9,1374.5c9.7,94.2,14.5,189,8,285.1c36.9,6.3,74.3,10.1,112.1,9.7c-82.4,81.7-190.6,132.6-300.4,170.2
				c-52.9,18.1-111.8,33.4-162.9,13.5c-27.1-21.2-44.9-53.9-48.2-88.1c-3.2-34.3,8.1-69.7,29.2-95.2c8.4-3.9,17.6-6.6,27.4-10
				c16.9-65.4,32.9-130.9,44.9-194.2C3676.5,1432.8,3773.3,1403.9,3870.9,1374.5z"/>
			<path d="M3942.2,1379.4c53.2-48.3,106.9-98.4,142.1-161.2c14.3-25.4,25.6-53.1,27.4-82.2c1.8-29.1-7-59.7-27.8-80
				c17.4-8.3,35-19.4,51.3-32c7.6-6,15.7-14.5,13.8-23.9c-2-9.7-13.2-14.3-23-14.7c-26.1-1.4-49.7,14.3-71.2,29.4
				c-8.6-73.4-48.3-136.5-100-184.1c-51.8-47.6-115.2-81-180.5-107.2c-50.8-20.4-103.9-36.8-158.7-40.4
				c-31.7-2.1-64.7,0.3-93.1,14.7c-28.4,14.3-51.3,42.6-52.5,74.3c-32.3,16-53.5,44.1-69.2,73c-25.6,46.9-41.1,100-39.6,153.4
				c1.5,53.4,20.9,107,59.5,149c144.5,70.6,289,141.3,433.5,211.9C3882,1373,3918.6,1400.8,3942.2,1379.4z"/>
			<path class="st9" d="M3889,1189.8c-15.9,39-29.5,79.1-40.4,119.8c-1.7,6.3-3.4,13.1-2.2,19.5c1.3,6.5,6.2,12.8,12.8,13.3
				c5.2,0.4,10-2.7,14.2-5.9c20.5-15.3,38.5-34.1,52.8-55.3c16.6-5.3,32.6-14.3,50.1-17c17.6-2.7,37.2,2,48.4,15.6
				c13.1,15.9,11.9,39.3,6,59.1c-5.9,19.7-15.7,38.1-28.6,53.9c-12.9,15.7-29.4,28.9-48.3,36.2s-40.7,8.4-59.7,1.1
				c-77.5,68.1-179.5,108.4-283.7,114.9c-53.1,5.1-116.6,3.1-162.3-33.4c-53.4-42.6-65.4-117.8-68.8-185.9
				c-5.3-106.9,1.1-214.2,19.2-319.8c7.3,4.2,12.9,10.7,19.5,15.9c6.7,5.1,15.6,8.7,23.5,5.9c6.6-2.4,10.8-8.7,13.9-15
				c7.9-15.4,11.9-32.7,10.3-50.4c15.3,28.1,32.7,55.1,52.2,80.6c9.8,12.8,20.9,25.8,36.4,30.5c21.8,6.6,45.8-6.5,59-25
				s18-41.7,21.1-60.8c25.4,37.5,52.4,74.1,80.6,109.5c12.2,15.3,24.9,30.5,40.6,42c12.6,9.3,28.6,16.2,44,12.4
				c12.2-2.9,22.2-12.5,28.5-23.3s9.7-23.3,15.3-37.9C3852.5,1125.7,3862.4,1162.9,3889,1189.8z"/>
			<g>
				<path class="st10" d="M3597.3,1404.4c-7.9,0-15.9-0.4-24-1.1c-33.7-3.1-68-11.9-95.5-19.2c-1.1-0.3-1.8-1.4-1.5-2.5
					s1.4-1.8,2.5-1.5c27.4,7.2,61.5,16.1,94.9,19.1c36,3.2,67.7-0.7,94.7-11.7c1.1-0.4,2.2,0.1,2.8,1.1c0.4,1.1-0.1,2.2-1.1,2.8
					C3648.4,1400.1,3624.1,1404.4,3597.3,1404.4z"/>
			</g>
			<g>
				<path class="st10" d="M3589.2,1549.1c-18.3,0-36.7-1.1-54.8-3.5c-1.1-0.1-2-1.3-1.8-2.4c0.1-1.1,1.1-2,2.4-1.8
					c127.1,16.2,259.5-25.6,354.3-111.9c0.8-0.8,2.2-0.7,2.9,0.1c0.8,0.8,0.7,2.2-0.1,2.9
					C3809.9,1507.4,3699.8,1549.1,3589.2,1549.1z"/>
			</g>
		</g>
		<g>
			<path class="st9" d="M3912.2,2762c-88.8-36.2-178.6-69.7-269.5-100.4c-61.1,3.7-120.1-11.4-166.4-44.7
				c-11.5,12.9-32.4,8.6-48.2,1.5c-17.6-7.9-34.1-17.8-49.3-29.6c-9.1-7-18-15-23.3-25.4c-5.8-11.2-6.6-24.3-6.6-36.9
				c0-29.6,3.9-59,8-88.3c1.3-9.7,2.7-19.5,7.3-28.2s12.9-16,22.6-16.6c-38.1-22.8-75-48.3-110.1-76.3c-6.2-5.1-12.6-10.4-16-17.6
				s-2.5-17,3.9-21.8c6.9-5.2,16.6-2.5,24.7,0.3c55.5,19.2,110.1,40.7,163.7,64.6c16.7,7.4,33.3,15,48.6,25
				c13.8,9,26.4,19.9,38.8,30.9c48.9,43.1,96.6,87.5,145.6,133c82,11.5,163.9,22.5,246,33.3c9.1,1.3,18.3,2.4,33.8-2.5
				C3951.8,2628.2,3933.4,2693.3,3912.2,2762z"/>
			<g>
				<path class="st10" d="M3387.5,2393.6c-1,0-1.8-0.7-2.1-1.5c-0.3-1.1,0.4-2.2,1.5-2.5c21.5-5.3,44.5-6.6,66.6-3.5
					c1.1,0.1,2,1.3,1.8,2.4c-0.1,1.1-1.3,2-2.4,1.8c-21.5-3.1-44-1.8-64.9,3.4C3387.8,2393.5,3387.6,2393.6,3387.5,2393.6z"/>
			</g>
			<g>
				<path class="st10" d="M3358.8,2444.3c-1,0-1.8-0.7-2.1-1.7c-0.1-1.1,0.6-2.2,1.7-2.4c22.6-3.9,45.6-5.3,68.5-4.1
					c1.1,0,2.1,1.1,2,2.2c0,1.1-1,2-2.2,2c-22.6-1.3-45.4,0.1-67.5,4.1C3359,2444.3,3359,2444.3,3358.8,2444.3z"/>
			</g>
			<g>
				<path class="st10" d="M3353.7,2499.8c-0.8,0-1.7-0.6-2-1.4c-0.4-1.1,0.1-2.2,1.3-2.7c21.5-8.3,43.8-14,66.6-17.4
					c1.1-0.1,2.2,0.6,2.4,1.8c0.1,1.1-0.6,2.2-1.8,2.4c-22.5,3.2-44.5,9-65.7,17.1C3354.1,2499.7,3353.8,2499.8,3353.7,2499.8z"/>
			</g>
			<g>
				<path class="st10" d="M3355.5,2556.4c-0.8,0-1.5-0.4-2-1.3c-0.4-1.1,0-2.2,1-2.8c20.8-9.5,43-15.4,65.7-17.7
					c1.1-0.1,2.2,0.7,2.2,1.8c0.1,1.1-0.7,2.2-1.8,2.2c-22.3,2.2-44,8.1-64.3,17.4C3356.2,2556.4,3355.8,2556.4,3355.5,2556.4z"/>
			</g>
			<g>
				<path class="st10" d="M3476.7,2619.5c-0.8,0-1.7-0.6-2-1.4c-6.7-19.1-25.6-33.4-45.6-35c-1.1-0.1-2-1.1-2-2.2
					c0.1-1.1,1.1-2.1,2.2-2c21.8,1.7,42,17.3,49.3,37.8c0.4,1.1-0.1,2.2-1.3,2.7C3477.1,2619.5,3476.8,2619.5,3476.7,2619.5z"/>
			</g>
			<g>
				<path class="st10" d="M3469.2,2536.9c-1.1,0-2.1-0.8-2.1-2.1c-1.1-39.6-0.3-79.6,2.1-119.1c0.1-1.1,1-2,2.2-2
					c1.1,0.1,2.1,1.1,2,2.2c-2.5,39.3-3.2,79.3-2.1,118.7C3471.3,2535.9,3470.5,2536.9,3469.2,2536.9L3469.2,2536.9z"/>
			</g>
			<g>
				<path class="st10" d="M3912.2,2764.1c-0.3,0-0.6,0-0.8-0.1c-88.2-36-178.8-69.7-268.9-100.1c-61.5,3.7-120.4-11.9-165.9-44
					c-14.5,14-39.2,5.2-49.3,0.7c-17.7-8-34.4-18-49.7-29.9c-8.6-6.6-18.3-15-23.9-26.1c-6-11.8-6.9-25.3-6.9-37.9
					c0-29.8,4.1-59.7,8-88.6c1.3-9.3,2.7-19.8,7.4-28.9c3.5-6.7,10-13.9,18.7-16.6c-36.8-22.2-72.3-47-105.6-73.6
					c-6.7-5.5-13.2-11-16.6-18.4c-3.5-7.6-3.1-18.8,4.5-24.4c7.4-5.6,17.7-3.2,26.7,0c55.3,19.1,110.4,40.9,163.9,64.6
					c17,7.6,33.4,15.2,48.9,25.1c13.6,8.8,25.7,19.2,39,31c48.6,42.7,95.1,86.1,144.4,131.9l0.7,0.7
					c81.5,11.4,163.9,22.5,245.3,33.1c9.1,1.3,17.8,2.4,33-2.4c0.7-0.3,1.5,0,2.1,0.4s0.8,1.3,0.7,2
					c-12.2,58.1-28.8,119.9-53.6,200.1c-0.1,0.6-0.6,1-1.1,1.3C3912.9,2764.1,3912.4,2764.1,3912.2,2764.1z M3642.7,2659.5
					c0.3,0,0.4,0,0.7,0.1c89.7,30.3,179.8,63.8,267.5,99.6c23.9-77.5,40-137.6,52.1-194.1c-14,3.8-22.9,2.7-31.3,1.5
					c-81.6-10.7-164.4-21.8-246-33.3c-0.4,0-0.8-0.3-1.1-0.6l-1.3-1.1c-49.3-45.8-95.8-89.2-144.4-131.9
					c-13.2-11.7-25.3-21.9-38.5-30.6c-15.2-9.8-31.5-17.4-48.3-24.9c-53.4-23.6-108.4-45.4-163.6-64.5c-8.3-2.9-16.9-4.9-22.8-0.6
					c-5.8,4.4-6,13.2-3.2,19.2c2.9,6.6,8.7,11.5,15.3,16.9c34.5,27.7,71.5,53.2,109.8,76.1c0.8,0.4,1.1,1.4,1,2.2
					c-0.3,0.8-1,1.5-2,1.5c-9.7,0.6-17.1,8.3-20.9,15.4c-4.4,8.4-5.8,18.1-7,27.5c-3.9,28.8-8,58.6-8,88.1c0,12.2,0.8,25,6.5,36.1
					c5.2,10.4,14.5,18.3,22.6,24.7c15,11.7,31.6,21.5,48.9,29.4c9.7,4.4,33.4,12.9,45.8-1c0.7-0.8,2-1,2.8-0.3
					C3522.5,2647.6,3581.2,2663.3,3642.7,2659.5L3642.7,2659.5z"/>
			</g>
			<path class="st11" d="M3960.1,2797.8c-22.9-2.7-45.5-7.3-67.4-13.9c-3.4-1-7-2.2-9.3-5.1c-3.4-4.4-2.1-10.7-0.6-16
				c18.8-66,37.5-131.9,56.3-197.9c1.1-4.2,2.5-8.7,6.2-11.1c3.7-2.5,8.6-2.1,12.9-1.5c21.9,2.5,43.8,5.1,64.3,10.3
				c-1.4,43.3-6.3,86.4-14.7,128.8C4000.2,2728.7,3989.3,2767.2,3960.1,2797.8z"/>
			<path class="st1" d="M4651.3,2745.6c-4.4,73.2-62.5,134.3-129.5,164c-67,29.8-142.1,34-215.3,37.9
				c-133.3-5.8-262.9-55.5-365.4-139c-1.8-7-1.5-7.9-1.3-8.7c19.8-31.7,28.5-69,36.8-105.5c10.7-46.6,21.3-93.2,32-140
				c16.1-15.9,34-32,56.5-36.7c15.6-3.1,31.6-0.3,47,2.7c64.5,12.2,128.6,26.4,192.3,42.3c-69.5-114.7-133.6-231.6-188.7-352.4
				c-8.1-113.9,37.2-229.5,90.6-342.1c-6-53.4,0.1-108.1,19.2-158.7c15.7,8.4,31.5,16.7,47.3,25.1c13.1,7,26.4,14.2,36.7,24.9
				c10.1,10.8,16.7,26.1,11.8,42c74,131.9,138.7,268.8,190.6,412.5c37.1,24.7,55.9,74,43.7,117.5
				C4596.1,2462.7,4660.3,2595.2,4651.3,2745.6z"/>
			<g>
				<path class="st1" d="M4492,2632.5c-0.3,0-0.6,0-0.8-0.1c-107.4-51.5-233-88.1-372.9-108.6c-20.6-3.1-40.7-5.5-60-1.7
					c-21.6,4.2-39,16.3-46.6,32.4c-0.6,1-1.7,1.5-2.8,1c-1-0.6-1.5-1.7-1-2.8c8.1-17.4,26.8-30.3,49.7-34.8
					c19.9-3.8,40.4-1.4,61.4,1.7c140.3,20.6,266.1,57.3,374.1,109c1,0.6,1.5,1.8,1,2.8C4493.6,2632.1,4492.7,2632.5,4492,2632.5z"/>
			</g>
			<g>
				<path class="st1" d="M4302,2563.6c-0.7,0-1.4-0.4-1.8-1.1c-64.7-113.6-126.7-230.7-183.8-348.3c-0.6-1-0.1-2.2,1-2.8
					c1-0.6,2.2-0.1,2.8,1c57.2,117.4,119.1,234.5,183.7,348c0.6,1,0.3,2.2-0.8,2.8C4302.7,2563.6,4302.4,2563.6,4302,2563.6z"/>
			</g>
			<g>
				<path class="st1" d="M4146.3,2272c-0.3,0-0.6,0-1-0.3l-63.3-30.8c-1-0.6-1.5-1.8-1-2.8c0.6-1,1.8-1.5,2.8-1l63.3,30.8
					c1,0.6,1.5,1.8,1,2.8C4147.8,2271.6,4147.1,2272,4146.3,2272z"/>
			</g>
			<g>
				<path class="st1" d="M4485.6,2250.7c-0.4,0-0.8-0.1-1.1-0.3c-75.8-53-152-114.3-195.3-202.2c-0.6-1.1-0.1-2.3,0.8-3
					c1-0.6,2.2-0.1,2.8,0.9c43,87,118.7,147.8,193.9,200.5c1,0.7,1.3,2.1,0.6,3.1C4486.8,2250.4,4486.3,2250.7,4485.6,2250.7z"/>
			</g>
			<g>
				<path class="st1" d="M4306.5,2949.8C4306.4,2949.8,4306.4,2949.8,4306.5,2949.8c-133.1-5.8-263.5-55.3-366.8-139.5
					c-0.3-0.3-0.6-0.7-0.7-1.1c-1.8-7.3-1.7-8.4-1.3-9.8c0.4-1.1,1.5-1.7,2.7-1.3c1.1,0.4,1.7,1.5,1.3,2.7c-0.1,0.4-0.3,1,1.1,6.7
					c102.5,83.3,231.7,132.4,363.6,138.2c69-3.7,146.9-7.9,214.4-37.8c1.1-0.4,2.2,0,2.8,1.1s0,2.2-1.1,2.8
					C4454.4,2941.9,4375.9,2946,4306.5,2949.8L4306.5,2949.8z"/>
			</g>
			<text transform="matrix(1 0 0 1 2511.627 2417.8687)" class="st1 st13 st14">c4c4c4</text>
		</g>
		<g>
			<path class="st11" d="M3572.2,1864.6c-16.9,0-33.7-2.6-49.5-8.7c-0.1-0.1-0.4-0.1-0.5-0.3c-25.1-19.7-41.9-50.3-44.8-82
				c-2.9-31.2,7.2-64.3,27.1-88.4c0.9-1.4,1.8-2.9,2.7-4.7c4-6.8,9-15.3,16.2-25.2c0.6-0.9,1.8-1,2.7-0.4c0.9,0.6,1,1.8,0.4,2.7
				c-7,9.8-12.1,18.1-16.1,24.8c-1,1.6-1.9,3.2-2.8,4.8c0,0.1-0.1,0.1-0.1,0.3c-19.4,23.4-29.2,55.4-26.4,85.8
				c2.9,30.6,19,60.1,43.2,79.2c45.8,17.8,97.9,4.5,147.5-12.4c122.4-41.9,209.5-91.3,274-155.2c1-1.4,9.8-14.8,5.7-26.7
				c-2.6-7.6-10.1-13.3-22-16.8c-1-0.3-1.6-1.4-1.3-2.5s1.4-1.6,2.5-1.3c13.3,3.8,21.5,10.3,24.5,19.1c5,14.4-5.8,29.7-6.3,30.3
				c0,0.1-0.1,0.1-0.3,0.3c-65.1,64.4-152.6,114-275.7,156.3C3639.8,1854.9,3605.2,1864.6,3572.2,1864.6z"/>
		</g>
		<g>
			<path class="st11" d="M4034.9,1685.6c-0.6,0-1-0.1-1.4-0.6c-0.8-0.8-1-2.1-0.1-2.9c14.9-16.7,21.2-33.1,18.5-48.9
				c-4.2-25.3-30.3-40.3-30.5-40.4c-1-0.6-1.4-1.8-0.8-2.8c0.6-1,1.8-1.4,2.8-0.8c1.1,0.7,28.1,16.1,32.6,43.4
				c2.8,17-3.8,34.7-19.7,52.4C4036,1685.4,4035.5,1685.6,4034.9,1685.6z"/>
		</g>
	</g>
</g>
</svg>
