<svg id="Layer_1" data-name="Layer 1" xmlns="http://www.w3.org/2000/svg" viewBox="0 0 100 100"><defs><style>.cls-1{fill:#fff;}.cls-2{fill:#1b6bb9;}.cls-3{fill:#2c1f60;}</style></defs><path class="cls-1" d="M14,72V24a4,4,0,0,1,4-4H82a4,4,0,0,1,4,4V72"/><path class="cls-2" d="M91,68H64.24A3.61,3.61,0,0,0,61,70h0a3.61,3.61,0,0,1-3.24,2H42.24A3.61,3.61,0,0,1,39,70h0a3.61,3.61,0,0,0-3.24-2H9a2,2,0,0,0-2,2A10,10,0,0,0,17,80H83A10,10,0,0,0,93,70,2,2,0,0,0,91,68Z"/><path class="cls-3" d="M86,70a2,2,0,0,1-2-2V24a2,2,0,0,0-2-2H18a2,2,0,0,0-2,2V68a2,2,0,0,1-4,0V24a6,6,0,0,1,6-6H82a6,6,0,0,1,6,6V68A2,2,0,0,1,86,70Z"/><path class="cls-3" d="M83,82H17A12,12,0,0,1,5,70a4,4,0,0,1,4-4H35.76a5.6,5.6,0,0,1,5,3.1,1.59,1.59,0,0,0,1.45.9H57.76a1.59,1.59,0,0,0,1.45-.9,5.6,5.6,0,0,1,5-3.1H91a4,4,0,0,1,4,4A12,12,0,0,1,83,82ZM9,70a8,8,0,0,0,8,8H83a8,8,0,0,0,8-8H64.24a1.59,1.59,0,0,0-1.45.9,5.6,5.6,0,0,1-5,3.1H42.24a5.6,5.6,0,0,1-5-3.1,1.59,1.59,0,0,0-1.45-.9Z"/><path class="cls-3" d="M79,55a2,2,0,0,1-1.87-1.3L71,37.27,64.87,53.7a2,2,0,0,1-3.74-1.4l6.71-18A2,2,0,0,1,69.71,33h2.58a2,2,0,0,1,1.87,1.3l6.71,18a2,2,0,0,1-1.17,2.57A1.93,1.93,0,0,1,79,55Z"/><path class="cls-3" d="M76,49H66a2,2,0,0,1,0-4H76a2,2,0,0,1,0,4Z"/><path class="cls-3" d="M31,41a2,2,0,0,1-2-2V35a2,2,0,0,1,4,0v4A2,2,0,0,1,31,41Z"/><path class="cls-3" d="M41,41H21a2,2,0,0,1,0-4H41a2,2,0,0,1,0,4Z"/><path class="cls-3" d="M39,55a2.09,2.09,0,0,1-.69-.12A21.57,21.57,0,0,1,24.23,39.34a2,2,0,0,1,3.94-.69A17.57,17.57,0,0,0,39.69,51.12,2,2,0,0,1,39,55Z"/><path class="cls-3" d="M23,55a2,2,0,0,1-.69-3.88A17.58,17.58,0,0,0,33.83,38.65a2,2,0,0,1,3.94.69A21.57,21.57,0,0,1,23.69,54.88,2.09,2.09,0,0,1,23,55Z"/><path class="cls-3" d="M55,47H45a2,2,0,0,1,0-4H55a2,2,0,0,1,0,4Z"/><path class="cls-3" d="M53,51a2,2,0,0,1-1.41-3.41L54.17,45l-2.58-2.59a2,2,0,0,1,2.82-2.82l4,4a2,2,0,0,1,0,2.82l-4,4A2,2,0,0,1,53,51Z"/></svg>