<svg id="Layer_1" data-name="Layer 1" xmlns="http://www.w3.org/2000/svg" viewBox="0 0 100 100"><defs><style>.cls-1{fill:#4eb8f1;}.cls-2{fill:#2c1f60;}.cls-3{fill:#1c6bb9;}.cls-4{fill:#fff;}</style></defs><path class="cls-1" d="M56.81,77H33a4,4,0,0,1-4-4V11a4,4,0,0,1,4-4H73L87,21V73a4,4,0,0,1-4,4"/><path class="cls-2" d="M83,79a2,2,0,0,1,0-4,2,2,0,0,0,2-2V21.83L72.17,9H33a2,2,0,0,0-2,2V73a2,2,0,0,0,2,2H56.81a2,2,0,0,1,0,4H33a6,6,0,0,1-6-6V11a6,6,0,0,1,6-6H73a2,2,0,0,1,1.41.59l14,14A2,2,0,0,1,89,21V73A6,6,0,0,1,83,79Z"/><path class="cls-3" d="M74.92,63.92h10a0,0,0,0,1,0,0v27a5,5,0,0,1-5,5h0a5,5,0,0,1-5-5v-27a0,0,0,0,1,0,0Z" transform="translate(-33.1 79.92) rotate(-45)"/><path class="cls-2" d="M87.7,94.7a7,7,0,0,1-5-2L63.66,73.56a2,2,0,0,1-.59-1.42,2,2,0,0,1,.59-1.41l7.07-7.07a2,2,0,0,1,2.83,0L92.65,82.75a7,7,0,0,1,0,9.9h0A7,7,0,0,1,87.7,94.7Zm3.53-3.47h0ZM67.9,72.14,85.58,89.82a3.08,3.08,0,0,0,4.24,0,3,3,0,0,0,0-4.24L72.14,67.9Z"/><circle class="cls-4" cx="58" cy="58" r="21"/><path class="cls-2" d="M58,81A23,23,0,1,1,81,58,23,23,0,0,1,58,81Zm0-42A19,19,0,1,0,77,58,19,19,0,0,0,58,39Z"/><path class="cls-2" d="M58,55a2,2,0,0,1-2-2V49a2,2,0,0,1,4,0v4A2,2,0,0,1,58,55Z"/><path class="cls-2" d="M68,55H48a2,2,0,0,1,0-4H68a2,2,0,0,1,0,4Z"/><path class="cls-2" d="M66,69a2.09,2.09,0,0,1-.69-.12A21.57,21.57,0,0,1,51.23,53.34a2,2,0,0,1,3.94-.69A17.57,17.57,0,0,0,66.69,65.12,2,2,0,0,1,66,69Z"/><path class="cls-2" d="M50,69a2,2,0,0,1-.69-3.88A17.58,17.58,0,0,0,60.83,52.65a2,2,0,0,1,3.94.69A21.57,21.57,0,0,1,50.69,68.88,2.09,2.09,0,0,1,50,69Z"/><path class="cls-4" d="M86,21H77a4,4,0,0,1-4-4V8"/><path class="cls-2" d="M86,23H77a6,6,0,0,1-6-6V8a2,2,0,0,1,1.23-1.85,2,2,0,0,1,2.18.44l13,13a2,2,0,0,1,.44,2.18A2,2,0,0,1,86,23ZM75,12.83V17a2,2,0,0,0,2,2h4.17Z"/><path class="cls-2" d="M55,23H45a2,2,0,0,1,0-4H55a2,2,0,0,1,0,4Z"/><path class="cls-2" d="M79,31H37a2,2,0,0,1,0-4H79a2,2,0,0,1,0,4Z"/></svg>