<svg id="Layer_1" data-name="Layer 1" xmlns="http://www.w3.org/2000/svg" viewBox="0 0 100 100"><defs><style>.cls-1{fill:#fff;}.cls-2{fill:#2c1f60;}.cls-3{fill:#1b6ab9;}.cls-4{fill:#4cb8f3;}</style></defs><circle class="cls-1" cx="76" cy="67" r="8"/><path class="cls-1" d="M76,75h0A17,17,0,0,1,93,92v1a0,0,0,0,1,0,0H59a0,0,0,0,1,0,0V92A17,17,0,0,1,76,75Z"/><circle class="cls-1" cx="24" cy="67" r="8"/><path class="cls-1" d="M24,75h0A17,17,0,0,1,41,92v1a0,0,0,0,1,0,0H7a0,0,0,0,1,0,0V92A17,17,0,0,1,24,75Z"/><path class="cls-2" d="M76,77A10,10,0,1,1,86,67,10,10,0,0,1,76,77Zm0-16a6,6,0,1,0,6,6A6,6,0,0,0,76,61Z"/><path class="cls-2" d="M93,95H59a2,2,0,0,1-2-2V92a19,19,0,0,1,38,0v1A2,2,0,0,1,93,95ZM61,91H91A15,15,0,0,0,61,91Z"/><path class="cls-2" d="M24,77A10,10,0,1,1,34,67,10,10,0,0,1,24,77Zm0-16a6,6,0,1,0,6,6A6,6,0,0,0,24,61Z"/><path class="cls-2" d="M41,95H7a2,2,0,0,1-2-2V92a19,19,0,0,1,38,0v1A2,2,0,0,1,41,95ZM9,91H39A15,15,0,0,0,9,91Z"/><rect class="cls-3" x="13" y="15" width="74" height="34" rx="4"/><circle class="cls-4" cx="50" cy="60" r="11"/><path class="cls-4" d="M48,71h4A19,19,0,0,1,71,90v3a0,0,0,0,1,0,0H29a0,0,0,0,1,0,0V90A19,19,0,0,1,48,71Z"/><path class="cls-2" d="M50,73A13,13,0,1,1,63,60,13,13,0,0,1,50,73Zm0-22a9,9,0,1,0,9,9A9,9,0,0,0,50,51Z"/><path class="cls-2" d="M71,95H29a2,2,0,0,1-2-2V90A21,21,0,0,1,48,69h4A21,21,0,0,1,73,90v3A2,2,0,0,1,71,95ZM31,91H69V90A17,17,0,0,0,52,73H48A17,17,0,0,0,31,90Z"/><path class="cls-2" d="M79,43a2,2,0,0,1-1.87-1.3L71,25.27,64.87,41.7a2,2,0,0,1-3.74-1.4l6.71-18A2,2,0,0,1,69.71,21h2.58a2,2,0,0,1,1.87,1.3l6.71,18a2,2,0,0,1-1.17,2.57A1.93,1.93,0,0,1,79,43Z"/><path class="cls-2" d="M76,37H66a2,2,0,0,1,0-4H76a2,2,0,0,1,0,4Z"/><path class="cls-2" d="M31,29a2,2,0,0,1-2-2V23a2,2,0,0,1,4,0v4A2,2,0,0,1,31,29Z"/><path class="cls-2" d="M41,29H21a2,2,0,0,1,0-4H41a2,2,0,0,1,0,4Z"/><path class="cls-2" d="M39,43a2.09,2.09,0,0,1-.69-.12A21.57,21.57,0,0,1,24.23,27.34a2,2,0,0,1,3.94-.69A17.57,17.57,0,0,0,39.69,39.12,2,2,0,0,1,39,43Z"/><path class="cls-2" d="M23,43a2,2,0,0,1-.69-3.88A17.58,17.58,0,0,0,33.83,26.65a2,2,0,0,1,3.94.69A21.57,21.57,0,0,1,23.69,42.88,2.09,2.09,0,0,1,23,43Z"/><path class="cls-2" d="M55,35H45a2,2,0,0,1,0-4H55a2,2,0,0,1,0,4Z"/><path class="cls-2" d="M53,39a2,2,0,0,1-1.41-3.41L54.17,33l-2.58-2.59a2,2,0,0,1,2.82-2.82l4,4a2,2,0,0,1,0,2.82l-4,4A2,2,0,0,1,53,39Z"/><path class="cls-2" d="M83,51H17a6,6,0,0,1-6-6V19a6,6,0,0,1,6-6H83a6,6,0,0,1,6,6V45A6,6,0,0,1,83,51ZM17,17a2,2,0,0,0-2,2V45a2,2,0,0,0,2,2H83a2,2,0,0,0,2-2V19a2,2,0,0,0-2-2Z"/><circle class="cls-1" cx="51" cy="14" r="7"/><path class="cls-2" d="M51,23a9,9,0,1,1,9-9A9,9,0,0,1,51,23ZM51,9a5,5,0,1,0,5,5A5,5,0,0,0,51,9Z"/></svg>