<?xml version="1.0" encoding="utf-8"?>
<!-- Generator: Adobe Illustrator 28.0.0, SVG Export Plug-In . SVG Version: 6.00 Build 0)  -->
<svg version="1.1" id="Capa_1" xmlns="http://www.w3.org/2000/svg" xmlns:xlink="http://www.w3.org/1999/xlink" x="0px" y="0px"
	 viewBox="0 0 110 110" style="enable-background:new 0 0 110 110;" xml:space="preserve">
<style type="text/css">
	.st0{fill:#F7F7F7;}
	.st1{fill:#E2E2E2;}
	.st2{fill:#008BCE;}
	.st3{fill:#FFFFFF;}
</style>
<g id="_17._MP3">
	<circle class="st0" cx="55" cy="55" r="50"/>
	<path class="st1" d="M84,22v73.7c-22.5,16-53.7,10.8-69.7-11.7c-0.1-0.1-0.2-0.3-0.3-0.4V14c0-2.2,1.8-4,4-4h54L84,22z"/>
	<path class="st2" d="M84,22H74c-1.1,0-2-0.9-2-2V10L84,22z"/>
	<path class="st2" d="M68.9,29l-30,4c-0.5,0.1-0.9,0.5-0.9,1v27.2c-2.1-2.1-5-3.3-8-3.2c-5.5,0-10,3.6-10,8s4.5,8,10,8s10-3.6,10-8
		V46.9l28-3.7v13.1c-2.1-2.1-5-3.3-8-3.2c-5.5,0-10,3.6-10,8s4.5,8,10,8s10-3.6,10-8V30c0-0.6-0.4-1-1-1C69,29,68.9,29,68.9,29z"/>
	<path class="st2" d="M65,72h38c1.1,0,2,0.9,2,2v20c0,1.1-0.9,2-2,2H65c-1.1,0-2-0.9-2-2V74C63,72.9,63.9,72,65,72z"/>
	<path class="st3" d="M76.3,78.3L73,81.6l-3.3-3.3c-0.4-0.4-1-0.4-1.4,0C68.1,78.5,68,78.7,68,79v10c0,0.6,0.4,1,1,1s1-0.4,1-1v-7.6
		l2.3,2.3c0.4,0.4,1,0.4,1.4,0c0,0,0,0,0,0l2.3-2.3V89c0,0.6,0.4,1,1,1s1-0.4,1-1V79c0-0.6-0.4-1-1-1C76.7,78,76.5,78.1,76.3,78.3z"
		/>
	<path class="st3" d="M85.5,78H81c-0.6,0-1,0.4-1,1v10c0,0.6,0.4,1,1,1s1-0.4,1-1v-2h3.5c2.5,0,4.5-2,4.5-4.5S88,78,85.5,78z
		 M85.5,85H82v-5h3.5c1.4,0,2.5,1.1,2.5,2.5S86.9,85,85.5,85z"/>
	<path class="st3" d="M97.7,82.4l2.1-2.8c0.3-0.4,0.2-1.1-0.2-1.4C99.4,78.1,99.2,78,99,78h-6c-0.6,0-1,0.4-1,1s0.4,1,1,1h4
		l-1.8,2.4c-0.3,0.4-0.2,1.1,0.2,1.4c0.2,0.1,0.4,0.2,0.6,0.2c1.1,0,2,0.9,2,2s-0.9,2-2,2h-3c-0.6,0-1,0.4-1,1s0.4,1,1,1h3
		c2.2,0,4-1.8,4-4C100,84.5,99.1,83,97.7,82.4z"/>
</g>
</svg>
