<?xml version="1.0" encoding="utf-8"?>
<!-- Generator: Adobe Illustrator 28.0.0, SVG Export Plug-In . SVG Version: 6.00 Build 0)  -->
<svg version="1.1" id="Capa_1" xmlns="http://www.w3.org/2000/svg" xmlns:xlink="http://www.w3.org/1999/xlink" x="0px" y="0px"
	 viewBox="0 0 110 110" style="enable-background:new 0 0 110 110;" xml:space="preserve">
<style type="text/css">
	.st0{fill:#F7F7F7;}
	.st1{fill:#E2E2E2;}
	.st2{fill:#E8E8E8;}
	.st3{fill:#008BCE;}
</style>
<g id="_23._Favorite">
	<circle class="st0" cx="55" cy="55" r="50"/>
	<path class="st1" d="M84,15v80H25c-3.4-2.5-6.4-5.4-9-8.7V15c0-2.2,1.8-4,4-4h60C82.2,11,84,12.8,84,15z"/>
	<path class="st2" d="M92,31v57.6c-17.7,19.4-47.4,21.9-68,5.6V23c0-2.2,1.8-4,4-4h52L92,31z"/>
	<path class="st3" d="M92,31h-9c-1.7,0-3-1.3-3-3v-9L92,31z"/>
	<path class="st3" d="M42,11v10c0,2.5-2,4.5-4.5,4.5S33,23.5,33,21v-3c0-0.6,0.4-1,1-1s1,0.4,1,1v3c0,1.4,1.1,2.5,2.5,2.5
		S40,22.4,40,21V11c0-1.4-1.1-2.5-2.5-2.5S35,9.6,35,11h-2c0-2.5,2-4.5,4.5-4.5S42,8.5,42,11z"/>
	<path class="st3" d="M77,54H64.1l-4.2-11.7c-0.4-1-1.5-1.6-2.6-1.2c-0.6,0.2-1,0.6-1.2,1.2L51.9,54H39c-1.1,0-2,0.9-2,2
		c0,0.6,0.3,1.2,0.8,1.6l10,7.9l-4.6,12.9c-0.4,1,0.2,2.2,1.2,2.6c0.6,0.2,1.2,0.1,1.7-0.2l12-7.3C70.9,81.3,70.2,81,71,81
		c1.1,0,2-0.9,2-2c0-0.2,0-0.5-0.1-0.7l-4.6-12.9l10-7.9c0.9-0.7,1-1.9,0.3-2.8C78.2,54.3,77.6,54,77,54z"/>
</g>
</svg>
