<?xml version="1.0" encoding="utf-8"?>
<!-- Generator: Adobe Illustrator 28.0.0, SVG Export Plug-In . SVG Version: 6.00 Build 0)  -->
<svg version="1.1" id="Capa_1" xmlns="http://www.w3.org/2000/svg" xmlns:xlink="http://www.w3.org/1999/xlink" x="0px" y="0px"
	 viewBox="0 0 110 110" style="enable-background:new 0 0 110 110;" xml:space="preserve">
<style type="text/css">
	.st0{fill:#E7EFFF;}
	.st1{fill:#F7F7F7;}
	.st2{fill:#008BCE;}
	.st3{fill:#FFFFFF;}
	.st4{fill:#EAEAEA;}
</style>
<g id="_3._Clipboard">
	<circle class="st0" cx="55" cy="59" r="50"/>
	<path class="st1" d="M105,59c0,27.6-22.4,50-50,50c-12.1,0-23.9-4.4-33-12.4C-3.4,74.2,0.2,33.4,29.5,16C53.2,1.9,83.9,9.7,98,33.5
		C102.6,41.2,105,50,105,59z"/>
	<path class="st2" d="M96,24v63.6c-2.3,3.3-5,6.3-8,9c-2.8,0,15.3-0.1-65.5,0.4c-3.2-2.8-6.1-5.9-8.5-9.4V24c0-4.4,3.6-8,8-8h66
		C92.4,16,96,19.6,96,24z"/>
	<path class="st3" d="M88,26v70.6c-18.9,16.6-47.1,16.6-66,0V26c0-1.1,0.9-2,2-2h62C87.1,24,88,24.9,88,26z"/>
	<path class="st4" d="M41,10h28c1.7,0,3,1.3,3,3v14l0,0H38l0,0V13C38,11.3,39.3,10,41,10z"/>
	<path class="st4" d="M61,10H49V7c0-3.3,2.7-6,6-6s6,2.7,6,6V10z"/>
	<path class="st4" d="M35,27h40c1.1,0,2,0.9,2,2v4c0,1.1-0.9,2-2,2H35c-1.1,0-2-0.9-2-2v-4C33,27.9,33.9,27,35,27z"/>
	<circle class="st3" cx="55" cy="6" r="2"/>
	<circle class="st2" cx="55" cy="56" r="16"/>
	<path class="st3" d="M51.6,62.4l-5-5c-0.7-0.8-0.6-2.1,0.2-2.8c0.7-0.6,1.9-0.6,2.6,0l3.6,3.6l7.6-7.6c0.8-0.7,2.1-0.6,2.8,0.2
		c0.6,0.7,0.6,1.9,0,2.6l-9,9C53.6,63.2,52.4,63.2,51.6,62.4z"/>
	<path class="st1" d="M41,86H29c-0.6,0-1-0.4-1-1s0.4-1,1-1h12c0.6,0,1,0.4,1,1S41.6,86,41,86z"/>
	<path class="st1" d="M81,86H47c-0.6,0-1-0.4-1-1s0.4-1,1-1h34c0.6,0,1,0.4,1,1S81.6,86,81,86z"/>
	<path class="st1" d="M41,92H29c-0.6,0-1-0.4-1-1s0.4-1,1-1h12c0.6,0,1,0.4,1,1S41.6,92,41,92z"/>
	<path class="st1" d="M81,92H47c-0.6,0-1-0.4-1-1s0.4-1,1-1h34c0.6,0,1,0.4,1,1S81.6,92,81,92z"/>
	<path class="st1" d="M41,98H29c-0.6,0-1-0.4-1-1s0.4-1,1-1h12c0.6,0,1,0.4,1,1S41.6,98,41,98z"/>
	<path class="st1" d="M81,98H47c-0.6,0-1-0.4-1-1s0.4-1,1-1h34c0.6,0,1,0.4,1,1S81.6,98,81,98z"/>
	<path class="st1" d="M33.2,104H41c0.6,0,1-0.4,1-1s-0.4-1-1-1H29.5L33.2,104z"/>
	<path class="st1" d="M80.5,102c-1.2,0.7-2.4,1.4-3.7,2H47c-0.6,0-1-0.4-1-1s0.4-1,1-1H80.5z"/>
	<path class="st1" d="M29,76h52c0.6,0,1,0.4,1,1v2c0,0.6-0.4,1-1,1H29c-0.6,0-1-0.4-1-1v-2C28,76.4,28.4,76,29,76z"/>
</g>
</svg>
