<?xml version="1.0" encoding="utf-8"?>
<!-- Generator: Adobe Illustrator 28.0.0, SVG Export Plug-In . SVG Version: 6.00 Build 0)  -->
<svg version="1.1" id="Capa_1" xmlns="http://www.w3.org/2000/svg" xmlns:xlink="http://www.w3.org/1999/xlink" x="0px" y="0px"
	 viewBox="0 0 110 110" style="enable-background:new 0 0 110 110;" xml:space="preserve">
<style type="text/css">
	.st0{fill:#F7F7F7;}
	.st1{fill:#E2E2E2;}
	.st2{fill:#E8E8E8;}
	.st3{fill:#FFFFFF;}
</style>
<g id="_22._Denied">
	<circle class="st0" cx="51" cy="55" r="50"/>
	<path class="st1" d="M78,21v76.1c-22.6,14.5-52.6,8.6-68-13.5V21c0-2.2,1.8-4,4-4h60C76.2,17,78,18.8,78,21z"/>
	<path class="st2" d="M86,21v69.7c-3.3,3.3-7.1,6.1-11.2,8.3H27.2c-3.3-1.8-6.4-4-9.2-6.4V13c0-2.2,1.8-4,4-4h52L86,21z"/>
	<circle cx="88" cy="77" r="16"/>
	<path class="st3" d="M90.8,77l4.6-4.6c0.7-0.8,0.6-2.1-0.2-2.8c-0.7-0.6-1.9-0.6-2.6,0L88,74.2l-4.6-4.6c-0.8-0.7-2.1-0.6-2.8,0.2
		c-0.6,0.7-0.6,1.9,0,2.6l4.6,4.6l-4.6,4.6c-0.7,0.8-0.6,2.1,0.2,2.8c0.7,0.6,1.9,0.6,2.6,0l4.6-4.6l4.6,4.6
		c0.8,0.7,2.1,0.6,2.8-0.2c0.6-0.7,0.6-1.9,0-2.6L90.8,77z"/>
	<path d="M86,21h-9c-1.7,0-3-1.3-3-3V9L86,21z"/>
	<path class="st3" d="M26,18h8c1.1,0,2,0.9,2,2v8c0,1.1-0.9,2-2,2h-8c-1.1,0-2-0.9-2-2v-8C24,18.9,24.9,18,26,18z"/>
	<path class="st3" d="M63,24H43c-0.6,0-1-0.4-1-1s0.4-1,1-1h20c0.6,0,1,0.4,1,1S63.6,24,63,24z"/>
	<path class="st3" d="M69,30H43c-0.6,0-1-0.4-1-1s0.4-1,1-1h26c0.6,0,1,0.4,1,1S69.6,30,69,30z"/>
	<path class="st3" d="M26,36h8c1.1,0,2,0.9,2,2v8c0,1.1-0.9,2-2,2h-8c-1.1,0-2-0.9-2-2v-8C24,36.9,24.9,36,26,36z"/>
	<path class="st3" d="M63,42H43c-0.6,0-1-0.4-1-1s0.4-1,1-1h20c0.6,0,1,0.4,1,1S63.6,42,63,42z"/>
	<path class="st3" d="M69,48H43c-0.6,0-1-0.4-1-1s0.4-1,1-1h26c0.6,0,1,0.4,1,1S69.6,48,69,48z"/>
	<path class="st3" d="M26,54h8c1.1,0,2,0.9,2,2v8c0,1.1-0.9,2-2,2h-8c-1.1,0-2-0.9-2-2v-8C24,54.9,24.9,54,26,54z"/>
	<path class="st3" d="M63,60H43c-0.6,0-1-0.4-1-1s0.4-1,1-1h20c0.6,0,1,0.4,1,1S63.6,60,63,60z"/>
	<path class="st3" d="M69,66H43c-0.6,0-1-0.4-1-1s0.4-1,1-1h26c0.6,0,1,0.4,1,1S69.6,66,69,66z"/>
	<path class="st3" d="M26,72h8c1.1,0,2,0.9,2,2v8c0,1.1-0.9,2-2,2h-8c-1.1,0-2-0.9-2-2v-8C24,72.9,24.9,72,26,72z"/>
	<path class="st3" d="M63,78H43c-0.6,0-1-0.4-1-1s0.4-1,1-1h20c0.6,0,1,0.4,1,1S63.6,78,63,78z"/>
	<path class="st3" d="M69,84H43c-0.6,0-1-0.4-1-1s0.4-1,1-1h26c0.6,0,1,0.4,1,1S69.6,84,69,84z"/>
	<path d="M32.8,24l3.6-3.6c0.7-0.8,0.6-2.1-0.2-2.8c-0.7-0.6-1.9-0.6-2.6,0L30,21.2l-3.6-3.6c-0.8-0.7-2.1-0.6-2.8,0.2
		c-0.6,0.7-0.6,1.9,0,2.6l3.6,3.6l-3.6,3.6c-0.7,0.8-0.6,2.1,0.2,2.8c0.7,0.6,1.9,0.6,2.6,0l3.6-3.6l3.6,3.6
		c0.8,0.7,2.1,0.6,2.8-0.2c0.6-0.7,0.6-1.9,0-2.6L32.8,24z"/>
	<path d="M36.4,35.6c-0.8-0.8-2-0.8-2.8,0L30,39.2l-3.6-3.6c-0.8-0.7-2.1-0.6-2.8,0.2c-0.6,0.7-0.6,1.9,0,2.6l3.6,3.6l-3.6,3.6
		c-0.7,0.8-0.6,2.1,0.2,2.8c0.7,0.6,1.9,0.6,2.6,0l3.6-3.6l3.6,3.6c0.8,0.7,2.1,0.6,2.8-0.2c0.6-0.7,0.6-1.9,0-2.6L32.8,42l3.6-3.6
		C37.2,37.6,37.2,36.4,36.4,35.6C36.5,35.6,36.4,35.6,36.4,35.6z"/>
	<path d="M36.4,53.6c-0.8-0.8-2-0.8-2.8,0L30,57.2l-3.6-3.6c-0.8-0.7-2.1-0.6-2.8,0.2c-0.6,0.7-0.6,1.9,0,2.6l3.6,3.6l-3.6,3.6
		c-0.7,0.8-0.6,2.1,0.2,2.8c0.7,0.6,1.9,0.6,2.6,0l3.6-3.6l3.6,3.6c0.8,0.7,2.1,0.6,2.8-0.2c0.6-0.7,0.6-1.9,0-2.6L32.8,60l3.6-3.6
		C37.2,55.6,37.2,54.4,36.4,53.6z"/>
	<path d="M36.4,71.6c-0.8-0.8-2-0.8-2.8,0L30,75.2l-3.6-3.6c-0.8-0.7-2.1-0.6-2.8,0.2c-0.6,0.7-0.6,1.9,0,2.6l3.6,3.6l-3.6,3.6
		c-0.7,0.8-0.6,2.1,0.2,2.8c0.7,0.6,1.9,0.6,2.6,0l3.6-3.6l3.6,3.6c0.8,0.7,2.1,0.6,2.8-0.2c0.6-0.7,0.6-1.9,0-2.6L32.8,78l3.6-3.6
		C37.2,73.6,37.2,72.4,36.4,71.6z"/>
</g>
</svg>
