<?xml version="1.0" encoding="utf-8"?>
<!-- Generator: Adobe Illustrator 28.0.0, SVG Export Plug-In . SVG Version: 6.00 Build 0)  -->
<svg version="1.1" id="_1._File" xmlns="http://www.w3.org/2000/svg" xmlns:xlink="http://www.w3.org/1999/xlink" x="0px" y="0px"
	 viewBox="0 0 110 110" style="enable-background:new 0 0 110 110;" xml:space="preserve">
<style type="text/css">
	.st0{fill:#F7F7F7;}
	.st1{fill:#E2E2E2;}
	.st2{fill:#A5BCED;}
	.st3{fill:#008BCE;}
	.st4{fill:#FFFFFF;}
</style>
<circle class="st0" cx="55" cy="55" r="50"/>
<path class="st1" d="M84,15v80H25c-3.4-2.5-6.4-5.4-9-8.7V15c0-2.2,1.8-4,4-4h60C82.2,11,84,12.8,84,15z"/>
<path class="st2" d="M92,31v57.6c-17.7,19.4-47.4,21.9-68,5.6V23c0-2.2,1.8-4,4-4h52L92,31z"/>
<path class="st3" d="M92,31h-9c-1.7,0-3-1.3-3-3v-9L92,31z"/>
<path class="st1" d="M33,42h50c1.1,0,2,0.9,2,2v14c0,1.1-0.9,2-2,2H33c-1.1,0-2-0.9-2-2V44C31,42.9,31.9,42,33,42z"/>
<path class="st3" d="M42,11v10c0,2.5-2,4.5-4.5,4.5S33,23.5,33,21v-3c0-0.6,0.4-1,1-1s1,0.4,1,1v3c0,1.4,1.1,2.5,2.5,2.5
	S40,22.4,40,21V11c0-1.4-1.1-2.5-2.5-2.5S35,9.6,35,11h-2c0-2.5,2-4.5,4.5-4.5S42,8.5,42,11z"/>
<path class="st4" d="M64,38H32c-0.6,0-1-0.4-1-1s0.4-1,1-1h32c0.6,0,1,0.4,1,1S64.6,38,64,38z"/>
<path class="st4" d="M84,66H32c-0.6,0-1-0.4-1-1s0.4-1,1-1h52c0.6,0,1,0.4,1,1S84.6,66,84,66z"/>
<path class="st4" d="M84,72H32c-0.6,0-1-0.4-1-1s0.4-1,1-1h52c0.6,0,1,0.4,1,1S84.6,72,84,72z"/>
<path class="st4" d="M84,78H32c-0.6,0-1-0.4-1-1s0.4-1,1-1h52c0.6,0,1,0.4,1,1S84.6,78,84,78z"/>
<path class="st4" d="M84,84H32c-0.6,0-1-0.4-1-1s0.4-1,1-1h52c0.6,0,1,0.4,1,1S84.6,84,84,84z"/>
<path class="st4" d="M84,90H32c-0.6,0-1-0.4-1-1s0.4-1,1-1h52c0.6,0,1,0.4,1,1S84.6,90,84,90z"/>
<path class="st4" d="M84,96H32c-0.6,0-1-0.4-1-1s0.4-1,1-1h52c0.6,0,1,0.4,1,1S84.6,96,84,96z"/>
<path class="st4" d="M84,102H32c-0.6,0-1-0.4-1-1s0.4-1,1-1h52c0.6,0,1,0.4,1,1S84.6,102,84,102z"/>
<path class="st4" d="M44,32H32c-0.6,0-1-0.4-1-1s0.4-1,1-1h12c0.6,0,1,0.4,1,1S44.6,32,44,32z"/>
<path class="st3" d="M85,53.9V58c0,1.1-0.9,2-2,2H33c-1.1,0-2-0.9-2-2c4.6-7.3,16.2-9.4,24-4C61.3,43.3,78.6,43.3,85,53.9z"/>
</svg>
