<?xml version="1.0" encoding="utf-8"?>
<!-- Generator: Adobe Illustrator 28.0.0, SVG Export Plug-In . SVG Version: 6.00 Build 0)  -->
<svg version="1.1" id="Capa_1" xmlns="http://www.w3.org/2000/svg" xmlns:xlink="http://www.w3.org/1999/xlink" x="0px" y="0px"
	 viewBox="0 0 110 110" style="enable-background:new 0 0 110 110;" xml:space="preserve">
<style type="text/css">
	.st0{fill:#F7F7F7;}
	.st1{fill:#E2E2E2;}
	.st2{fill:#E8E8E8;}
	.st3{fill:#008BCE;}
	.st4{fill:#FFFFFF;}
</style>
<g id="_9._PDF">
	<circle class="st0" cx="55" cy="55" r="50"/>
	<path class="st1" d="M82,21v76.1c-22.6,14.5-52.6,8.6-68-13.5V21c0-2.2,1.8-4,4-4h60C80.2,17,82,18.8,82,21z"/>
	<path class="st2" d="M90,21v69.7c-3.3,3.3-7.1,6.1-11.2,8.3H31.2c-3.3-1.8-6.4-4-9.2-6.4V13c0-2.2,1.8-4,4-4h52L90,21z"/>
	<path class="st3" d="M90,21h-9c-1.7,0-3-1.3-3-3V9L90,21z"/>
	<path class="st1" d="M30,15h20c1.1,0,2,0.9,2,2v28c0,1.1-0.9,2-2,2H30c-1.1,0-2-0.9-2-2V17C28,15.9,28.9,15,30,15z"/>
	<path d="M58,15h12c1.1,0,2,0.9,2,2v4c0,1.1-0.9,2-2,2H58c-1.1,0-2-0.9-2-2v-4C56,15.9,56.9,15,58,15z"/>
	<path d="M84,29H57c-0.6,0-1-0.4-1-1s0.4-1,1-1h27c0.6,0,1,0.4,1,1S84.6,29,84,29z"/>
	<path d="M84,35H57c-0.6,0-1-0.4-1-1s0.4-1,1-1h27c0.6,0,1,0.4,1,1S84.6,35,84,35z"/>
	<path d="M84,41H57c-0.6,0-1-0.4-1-1s0.4-1,1-1h27c0.6,0,1,0.4,1,1S84.6,41,84,41z"/>
	<path d="M84,47H57c-0.6,0-1-0.4-1-1s0.4-1,1-1h27c0.6,0,1,0.4,1,1S84.6,47,84,47z"/>
	<path d="M84,53H29c-0.6,0-1-0.4-1-1s0.4-1,1-1h55c0.6,0,1,0.4,1,1S84.6,53,84,53z"/>
	<path d="M84,59H29c-0.6,0-1-0.4-1-1s0.4-1,1-1h55c0.6,0,1,0.4,1,1S84.6,59,84,59z"/>
	<path d="M84,65H29c-0.6,0-1-0.4-1-1s0.4-1,1-1h55c0.6,0,1,0.4,1,1S84.6,65,84,65z"/>
	<path d="M84,71H29c-0.6,0-1-0.4-1-1s0.4-1,1-1h55c0.6,0,1,0.4,1,1S84.6,71,84,71z"/>
	<path d="M84,77H29c-0.6,0-1-0.4-1-1s0.4-1,1-1h55c0.6,0,1,0.4,1,1S84.6,77,84,77z"/>
	<path d="M84,83H29c-0.6,0-1-0.4-1-1s0.4-1,1-1h55c0.6,0,1,0.4,1,1S84.6,83,84,83z"/>
	<path d="M51,89H29c-0.6,0-1-0.4-1-1s0.4-1,1-1h22c0.6,0,1,0.4,1,1S51.6,89,51,89z"/>
	<path class="st3" d="M65,61h38c1.1,0,2,0.9,2,2v20c0,1.1-0.9,2-2,2H65c-1.1,0-2-0.9-2-2V63C63,61.9,63.9,61,65,61z"/>
	<path class="st4" d="M73.5,67H70c-0.6,0-1,0.4-1,1v10c0,0.6,0.4,1,1,1s1-0.4,1-1v-2h2.5c2.5,0,4.5-2,4.5-4.5S76,67,73.5,67z
		 M73.5,74H71v-5h2.5c1.4,0,2.5,1.1,2.5,2.5S74.9,74,73.5,74z"/>
	<path class="st4" d="M84,67h-3c-0.6,0-1,0.4-1,1v10c0,0.6,0.4,1,1,1h3c3.3,0,6-2.7,6-6S87.3,67,84,67z M84,77h-2v-8h2
		c2.2,0,4,1.8,4,4S86.2,77,84,77z"/>
	<path class="st4" d="M98,67h-5c-0.6,0-1,0.4-1,1v10c0,0.6,0.4,1,1,1s1-0.4,1-1v-3h3c0.6,0,1-0.4,1-1s-0.4-1-1-1h-3v-4h4
		c0.6,0,1-0.4,1-1S98.6,67,98,67z"/>
	<path class="st3" d="M52,28.8V45c0,1.1-0.9,2-2,2H30c-1.1,0-2-0.9-2-2V34.5c2.4-1.6,5.3-2,8-1c2.5-5.5,9-8,14.5-5.5
		C51,28.2,51.5,28.5,52,28.8z"/>
	<circle class="st3" cx="36" cy="22" r="4"/>
</g>
</svg>
