<?xml version="1.0" encoding="utf-8"?>
<!-- Generator: Adobe Illustrator 28.0.0, SVG Export Plug-In . SVG Version: 6.00 Build 0)  -->
<svg version="1.1" id="Capa_1" xmlns="http://www.w3.org/2000/svg" xmlns:xlink="http://www.w3.org/1999/xlink" x="0px" y="0px"
	 viewBox="0 0 110 110" style="enable-background:new 0 0 110 110;" xml:space="preserve">
<style type="text/css">
	.st0{fill:#F7F7F7;}
	.st1{fill:#E2E2E2;}
	.st2{fill:#E8E8E8;}
	.st3{fill:#FFFFFF;}
	.st4{fill:#008BCE;}
</style>
<g id="_4._Folder">
	<circle class="st0" cx="55" cy="59" r="50"/>
	<path class="st1" d="M22,18h62l0,0v54l0,0H18l0,0V22C18,19.8,19.8,18,22,18z"/>
	<path class="st2" d="M30,26h62l0,0v54l0,0H26l0,0V30C26,27.8,27.8,26,30,26z"/>
	<path class="st3" d="M85,60H33c-0.6,0-1-0.4-1-1s0.4-1,1-1h52c0.6,0,1,0.4,1,1S85.6,60,85,60z"/>
	<path class="st3" d="M33,32h52c0.6,0,1,0.4,1,1v14c0,0.6-0.4,1-1,1H33c-0.6,0-1-0.4-1-1V33C32,32.4,32.4,32,33,32z"/>
	<path class="st4" d="M98,69v15.5c-19.4,32.6-66.6,32.6-86,0V62c0-2.2,1.8-4,4-4h22.7c1.4,0,2.8,0.8,3.5,2l1.7,3c0.7,1.2,2,2,3.5,2
		H94C96.2,65,98,66.8,98,69z"/>
	<circle class="st4" cx="89" cy="26" r="15"/>
	<path class="st3" d="M85,54H33c-0.6,0-1-0.4-1-1s0.4-1,1-1h52c0.6,0,1,0.4,1,1S85.6,54,85,54z"/>
	<path class="st3" d="M22,73h28c1.1,0,2,0.9,2,2v12c0,1.1-0.9,2-2,2H22c-1.1,0-2-0.9-2-2V75C20,73.9,20.9,73,22,73z"/>
	<path class="st0" d="M61,75h-4c-0.6,0-1-0.4-1-1s0.4-1,1-1h4c0.6,0,1,0.4,1,1S61.6,75,61,75z"/>
	<path class="st0" d="M61,81h-4c-0.6,0-1-0.4-1-1s0.4-1,1-1h4c0.6,0,1,0.4,1,1S61.6,81,61,81z"/>
	<path class="st4" d="M28,76h-4c-0.6,0-1,0.4-1,1v8c0,0.6,0.4,1,1,1s1-0.4,1-1v-3h2c0.6,0,1-0.4,1-1s-0.4-1-1-1h-2v-2h3
		c0.6,0,1-0.4,1-1S28.6,76,28,76z"/>
	<path class="st4" d="M32,76c-0.6,0-1,0.4-1,1v8c0,0.6,0.4,1,1,1s1-0.4,1-1v-8C33,76.4,32.6,76,32,76z"/>
	<path class="st4" d="M40,84h-3v-7c0-0.6-0.4-1-1-1s-1,0.4-1,1v8c0,0.6,0.4,1,1,1h4c0.6,0,1-0.4,1-1S40.6,84,40,84z"/>
	<path class="st4" d="M48,84h-3v-2h2c0.6,0,1-0.4,1-1s-0.4-1-1-1h-2v-2h3c0.6,0,1-0.4,1-1s-0.4-1-1-1h-4c-0.6,0-1,0.4-1,1v8
		c0,0.6,0.4,1,1,1h4c0.6,0,1-0.4,1-1S48.6,84,48,84z"/>
	<path class="st3" d="M88.2,35.7l-7-8c-0.4-0.4-0.3-1,0.1-1.4c0.2-0.2,0.4-0.2,0.7-0.2h3v-9c0-0.6,0.4-1,1-1h6c0.6,0,1,0.4,1,1v9h3
		c0.6,0,1,0.4,1,1c0,0.2-0.1,0.5-0.2,0.7l-7,8C89.4,36.1,88.8,36.1,88.2,35.7C88.3,35.7,88.3,35.7,88.2,35.7z"/>
	<path class="st4" d="M37,36h2c0.6,0,1,0.4,1,1v6c0,0.6-0.4,1-1,1h-2c-0.6,0-1-0.4-1-1v-6C36,36.4,36.4,36,37,36z"/>
	<path class="st4" d="M45,36h18c0.6,0,1,0.4,1,1v6c0,0.6-0.4,1-1,1H45c-0.6,0-1-0.4-1-1v-6C44,36.4,44.4,36,45,36z"/>
</g>
</svg>
