<?xml version="1.0" encoding="utf-8"?>
<!-- Generator: Adobe Illustrator 28.0.0, SVG Export Plug-In . SVG Version: 6.00 Build 0)  -->
<svg version="1.1" id="Layer_1" xmlns="http://www.w3.org/2000/svg" xmlns:xlink="http://www.w3.org/1999/xlink" x="0px" y="0px"
	 viewBox="0 0 100 100" style="enable-background:new 0 0 100 100;" xml:space="preserve">
<style type="text/css">
	.st0{fill:#FFFFFF;}
	.st1{fill:#49BEFF;}
</style>
<path d="M19,37c-1.1,0-2-0.9-2-2c0-0.7,0.4-1.3,1-1.7l31-19c1-0.4,2.2,0.1,2.6,1.1c0.3,0.8,0.1,1.8-0.6,2.3l-31,19
	C19.7,36.9,19.4,37,19,37z"/>
<path d="M81,37c-0.4,0-0.7-0.1-1-0.3l-31-19c-1-0.4-1.5-1.6-1.1-2.6s1.6-1.5,2.6-1.1c0.2,0.1,0.3,0.2,0.5,0.3l31,19
	c0.9,0.6,1.2,1.8,0.7,2.7C82.3,36.6,81.7,37,81,37z"/>
<circle class="st0" cx="50" cy="16" r="5"/>
<path d="M50,23c-3.9,0-7-3.1-7-7s3.1-7,7-7s7,3.1,7,7S53.9,23,50,23z M50,13c-1.7,0-3,1.3-3,3s1.3,3,3,3s3-1.3,3-3S51.7,13,50,13z"
	/>
<path class="st0" d="M15,35h70c2.2,0,4,1.8,4,4v44l0,0H11l0,0V39C11,36.8,12.8,35,15,35z"/>
<path class="st1" d="M11,83h78c2.2,0,4,1.8,4,4v2c0,2.2-1.8,4-4,4H11c-2.2,0-4-1.8-4-4v-2C7,84.8,8.8,83,11,83z"/>
<path d="M89,95H11c-3.3,0-6-2.7-6-6v-2c0-3.3,2.7-6,6-6h78c3.3,0,6,2.7,6,6v2C95,92.3,92.3,95,89,95z M11,85c-1.1,0-2,0.9-2,2v2
	c0,1.1,0.9,2,2,2h78c1.1,0,2-0.9,2-2v-2c0-1.1-0.9-2-2-2H11z"/>
<path d="M89,85H11c-1.1,0-2-0.9-2-2V39c0-3.3,2.7-6,6-6h70c3.3,0,6,2.7,6,6v44C91,84.1,90.1,85,89,85z M13,81h74V39c0-1.1-0.9-2-2-2
	H15c-1.1,0-2,0.9-2,2V81z"/>
<path d="M79,70c-0.8,0-1.6-0.5-1.9-1.3L71,52.3l-6.1,16.4c-0.4,1-1.6,1.5-2.6,1c-0.9-0.4-1.4-1.5-1.1-2.4l6.7-18
	c0.3-0.8,1-1.3,1.9-1.3h2.6c0.8,0,1.6,0.5,1.9,1.3l6.7,18c0.4,1-0.1,2.2-1.2,2.6C79.5,70,79.2,70,79,70z"/>
<path d="M76,64H66c-1.1,0-2-0.9-2-2s0.9-2,2-2h10c1.1,0,2,0.9,2,2S77.1,64,76,64z"/>
<path d="M31,56c-1.1,0-2-0.9-2-2v-4c0-1.1,0.9-2,2-2c1.1,0,2,0.9,2,2v4C33,55.1,32.1,56,31,56z"/>
<path d="M41,56H21c-1.1,0-2-0.9-2-2s0.9-2,2-2h20c1.1,0,2,0.9,2,2S42.1,56,41,56z"/>
<path d="M39,70c-0.2,0-0.5,0-0.7-0.1c-7.1-2.4-12.4-8.3-14.1-15.5c-0.2-1.1,0.5-2.1,1.6-2.3c1.1-0.2,2.1,0.5,2.3,1.6
	c1.4,5.9,5.8,10.6,11.5,12.5c1,0.4,1.6,1.5,1.2,2.6C40.6,69.5,39.8,70,39,70z"/>
<path d="M23,70c-1.1,0-2-0.9-2-2c0-0.8,0.5-1.6,1.3-1.9c5.7-1.9,10.1-6.6,11.5-12.5c0.2-1.1,1.2-1.8,2.3-1.6
	c1.1,0.2,1.8,1.2,1.6,2.3c-1.7,7.3-7,13.1-14.1,15.5C23.5,70,23.2,70,23,70z"/>
<path d="M55,62H45c-1.1,0-2-0.9-2-2s0.9-2,2-2h10c1.1,0,2,0.9,2,2S56.1,62,55,62z"/>
<path d="M53,66c-1.1,0-2-0.9-2-2c0-0.5,0.2-1,0.6-1.4l2.6-2.6l-2.6-2.6c-0.7-0.8-0.6-2.1,0.2-2.8c0.7-0.6,1.9-0.6,2.6,0l4,4
	c0.8,0.8,0.8,2,0,2.8l-4,4C54,65.8,53.5,66,53,66z"/>
</svg>
