<?xml version="1.0" encoding="utf-8"?>
<!-- Generator: Adobe Illustrator 28.0.0, SVG Export Plug-In . SVG Version: 6.00 Build 0)  -->
<svg version="1.1" id="Layer_1" xmlns="http://www.w3.org/2000/svg" xmlns:xlink="http://www.w3.org/1999/xlink" x="0px" y="0px"
	 viewBox="0 0 100 100" style="enable-background:new 0 0 100 100;" xml:space="preserve">
<style type="text/css">
	.st0{fill:#FFFFFF;}
	.st1{fill:#49BEFF;}
	.st2{fill:#4f8ac8;}
</style>
<circle class="st0" cx="76" cy="64" r="10"/>
<path class="st0" d="M76,74L76,74c9.4,0,17,7.6,17,17l0,0v2l0,0H59l0,0v-2C59,81.6,66.6,74,76,74L76,74z"/>
<circle class="st0" cx="24" cy="64" r="10"/>
<path class="st0" d="M24,74L24,74c9.4,0,17,7.6,17,17l0,0v2l0,0H7l0,0v-2C7,81.6,14.6,74,24,74L24,74z"/>
<polygon class="st0" points="43,13 15,13 15,33 29.3,33 37,39 37,33 43,33 "/>
<polygon class="st1" points="65,24 91,24 91,40 78.7,40 71,46 71,40 65,40 "/>
<path d="M76,76c-6.6,0-12-5.4-12-12s5.4-12,12-12s12,5.4,12,12S82.6,76,76,76z M76,56c-4.4,0-8,3.6-8,8s3.6,8,8,8s8-3.6,8-8
	S80.4,56,76,56z"/>
<path d="M93,95H59c-1.1,0-2-0.9-2-2v-2c0-10.5,8.5-19,19-19s19,8.5,19,19v2C95,94.1,94.1,95,93,95z M61,91h30c0-8.3-6.7-15-15-15
	S61,82.7,61,91z"/>
<path d="M24,76c-6.6,0-12-5.4-12-12s5.4-12,12-12s12,5.4,12,12S30.6,76,24,76z M24,56c-4.4,0-8,3.6-8,8s3.6,8,8,8s8-3.6,8-8
	S28.4,56,24,56z"/>
<path d="M41,95H7c-1.1,0-2-0.9-2-2v-2c0-10.5,8.5-19,19-19s19,8.5,19,19v2C43,94.1,42.1,95,41,95z M9,91h30c0-8.3-6.7-15-15-15
	S9,82.7,9,91z"/>
<circle class="st2" cx="50" cy="57" r="13"/>
<path class="st2" d="M48,70h4c10.5,0,19,8.5,19,19l0,0v4l0,0H29l0,0v-4C29,78.5,37.5,70,48,70L48,70z"/>
<path d="M50,72c-8.3,0-15-6.7-15-15s6.7-15,15-15s15,6.7,15,15S58.3,72,50,72L50,72z M50,46c-6.1,0-11,4.9-11,11s4.9,11,11,11
	s11-4.9,11-11S56.1,46,50,46z"/>
<path d="M71,95H29c-1.1,0-2-0.9-2-2v-4c0-11.6,9.4-21,21-21h4c11.6,0,21,9.4,21,21v4C73,94.1,72.1,95,71,95z M31,91h38v-2
	c0-9.4-7.6-17-17-17l0,0h-4c-9.4,0-17,7.6-17,17l0,0V91z"/>
<path d="M35,25H23c-1.1,0-2-0.9-2-2s0.9-2,2-2h12c1.1,0,2,0.9,2,2S36.1,25,35,25z"/>
<path d="M37,41c-0.4,0-0.9-0.1-1.2-0.4L28.6,35H15c-1.1,0-2-0.9-2-2V13c0-1.1,0.9-2,2-2h28c1.1,0,2,0.9,2,2v20c0,1.1-0.9,2-2,2h-4v4
	c0,0.8-0.4,1.5-1.1,1.8C37.6,40.9,37.3,41,37,41z M17,31h12.3c0.4,0,0.9,0.1,1.2,0.4l4.5,3.5V33c0-1.1,0.9-2,2-2h4V15H17V31z"/>
<path d="M83,34H73c-1.1,0-2-0.9-2-2c0-1.1,0.9-2,2-2h10c1.1,0,2,0.9,2,2C85,33.1,84.1,34,83,34z"/>
<path d="M71,48c-0.3,0-0.6-0.1-0.9-0.2c-0.7-0.3-1.1-1-1.1-1.8v-4h-4c-1.1,0-2-0.9-2-2V24c0-1.1,0.9-2,2-2h26c1.1,0,2,0.9,2,2v16
	c0,1.1-0.9,2-2,2H79.4l-7.2,5.6C71.9,47.9,71.4,48,71,48z M67,38h4c1.1,0,2,0.9,2,2v1.9l4.5-3.5c0.3-0.3,0.8-0.4,1.2-0.4H89V26H67
	V38z"/>
</svg>
