<?xml version="1.0" encoding="utf-8"?>
<!-- Generator: Adobe Illustrator 28.0.0, SVG Export Plug-In . SVG Version: 6.00 Build 0)  -->
<svg version="1.1" id="Layer_1" xmlns="http://www.w3.org/2000/svg" xmlns:xlink="http://www.w3.org/1999/xlink" x="0px" y="0px"
	 viewBox="0 0 100 100" style="enable-background:new 0 0 100 100;" xml:space="preserve">
<style type="text/css">
	.st0{fill:#FFFFFF;}
	.st1{fill:#4f8ac8;}
	.st2{fill:#49BEFF;}
</style>
<path class="st0" d="M14,85V37c0-2.2,1.8-4,4-4h64c2.2,0,4,1.8,4,4v48"/>
<path d="M86,83c-1.1,0-2-0.9-2-2V37c0-1.1-0.9-2-2-2H18c-1.1,0-2,0.9-2,2v44c0,1.1-0.9,2-2,2s-2-0.9-2-2V37c0-3.3,2.7-6,6-6h64
	c3.3,0,6,2.7,6,6v44C88,82.1,87.1,83,86,83z"/>
<path class="st1" d="M32,67h6c4.4,0,8,3.6,8,8v12l0,0H24l0,0V75C24,70.6,27.6,67,32,67z"/>
<path d="M46,89H24c-1.1,0-2-0.9-2-2V75c0-5.5,4.5-10,10-10h6c5.5,0,10,4.5,10,10v12C48,88.1,47.1,89,46,89z M26,85h18V75
	c0-3.3-2.7-6-6-6h-6c-3.3,0-6,2.7-6,6V85z"/>
<circle class="st0" cx="35" cy="62" r="7"/>
<path d="M35,71c-5,0-9-4-9-9s4-9,9-9s9,4,9,9S40,71,35,71z M35,57c-2.8,0-5,2.2-5,5c0,2.8,2.2,5,5,5s5-2.2,5-5
	C40,59.2,37.8,57,35,57z"/>
<path class="st2" d="M91,81H64.2c-1.4,0-2.6,0.8-3.2,2l0,0c-0.6,1.2-1.9,2-3.2,2H42.2c-1.4,0-2.6-0.8-3.2-2l0,0
	c-0.6-1.2-1.9-2-3.2-2H9c-1.1,0-2,0.9-2,2c0,5.5,4.5,10,10,10h66c5.5,0,10-4.5,10-10C93,81.9,92.1,81,91,81z"/>
<path d="M83,95H17c-6.6,0-12-5.4-12-12c0-2.2,1.8-4,4-4h26.8c2.1,0,4.1,1.2,5,3.1c0.3,0.6,0.8,0.9,1.5,0.9h15.5
	c0.6,0,1.2-0.3,1.5-0.9c0.9-1.9,2.9-3.1,5-3.1H91c2.2,0,4,1.8,4,4C95,89.6,89.6,95,83,95z M9,83c0,4.4,3.6,8,8,8h66c4.4,0,8-3.6,8-8
	H64.2c-0.6,0-1.2,0.3-1.5,0.9c-0.9,1.9-2.9,3.1-5,3.1H42.2c-2.1,0-4.1-1.2-5-3.1C37,83.3,36.4,83,35.8,83H9z"/>
<path class="st1" d="M89,7H31c-2.2,0-4,1.8-4,4v30c0,2.2,1.8,4,4,4h22l7,10l7-10h22c2.2,0,4-1.8,4-4V11C93,8.8,91.2,7,89,7z"/>
<path d="M60,57c-0.7,0-1.3-0.3-1.6-0.8L52,47H31c-3.3,0-6-2.7-6-6V11c0-3.3,2.7-6,6-6h58c3.3,0,6,2.7,6,6v30c0,3.3-2.7,6-6,6H68
	l-6.4,9.2C61.2,56.7,60.6,57,60,57z M31,9c-1.1,0-2,0.9-2,2v30c0,1.1,0.9,2,2,2h22c0.7,0,1.3,0.3,1.6,0.8l5.4,7.7l5.4-7.7
	c0.4-0.5,1-0.9,1.6-0.8h22c1.1,0,2-0.9,2-2V11c0-1.1-0.9-2-2-2H31z"/>
<path d="M85,37c-0.9,0-1.7-0.6-1.9-1.4L79,21.7l-4.1,13.9c-0.3,1.1-1.4,1.7-2.5,1.3c-1.1-0.3-1.7-1.4-1.3-2.5l4.7-16
	c0.3-0.8,1-1.4,1.9-1.4h2.6c0.9,0,1.7,0.6,1.9,1.4l4.7,16c0.3,1.1-0.3,2.2-1.3,2.5c0,0,0,0,0,0C85.4,37,85.2,37,85,37z"/>
<path d="M83,33h-8c-1.1,0-2-0.9-2-2c0-1.1,0.9-2,2-2h8c1.1,0,2,0.9,2,2C85,32.1,84.1,33,83,33z"/>
<path d="M43,25c-1.1,0-2-0.9-2-2v-4c0-1.1,0.9-2,2-2s2,0.9,2,2v4C45,24.1,44.1,25,43,25z"/>
<path d="M51,25H35c-1.1,0-2-0.9-2-2s0.9-2,2-2h16c1.1,0,2,0.9,2,2S52.1,25,51,25z"/>
<path d="M50.5,37c-0.3,0-0.5,0-0.7-0.1c-11.3-4.4-13.2-13.1-13.2-13.5c-0.2-1.1,0.5-2.1,1.6-2.4c1.1-0.2,2.1,0.5,2.4,1.6
	c0.1,0.3,1.6,7,10.8,10.5c1,0.4,1.5,1.6,1.1,2.6C52.1,36.5,51.3,37,50.5,37z"/>
<path d="M35.5,37c-1.1,0-2-0.9-2-2c0-0.8,0.5-1.6,1.3-1.9c9.2-3.6,10.7-10.3,10.8-10.5c0.2-1.1,1.3-1.8,2.4-1.5
	c1.1,0.2,1.8,1.3,1.5,2.4c-0.1,0.4-1.9,9-13.2,13.5C36,37,35.8,37,35.5,37z"/>
<path d="M61,33c-1.1,0-2-0.9-2-2c0-0.5,0.2-1,0.6-1.4l2.6-2.6l-2.6-2.6c-0.7-0.8-0.6-2.1,0.2-2.8c0.7-0.6,1.9-0.6,2.6,0l4,4
	c0.8,0.8,0.8,2,0,2.8l-4,4C62,32.8,61.5,33,61,33z"/>
</svg>
