<?xml version="1.0" encoding="utf-8"?>
<!-- Generator: Adobe Illustrator 28.0.0, SVG Export Plug-In . SVG Version: 6.00 Build 0)  -->
<svg version="1.1" id="Layer_1" xmlns="http://www.w3.org/2000/svg" xmlns:xlink="http://www.w3.org/1999/xlink" x="0px" y="0px"
	 viewBox="0 0 100 100" style="enable-background:new 0 0 100 100;" xml:space="preserve">
<style type="text/css">
	.st0{fill:#49BEFF;}
	.st1{fill:#4f8ac8;}
	.st2{fill:#FFFFFF;}
</style>
<path class="st0" d="M35,86L35,86c3.6,0,6.9-2.2,8.2-5.6L45,76h10l1.8,4.4c1.4,3.4,4.6,5.6,8.2,5.6H35z"/>
<path class="st1" d="M7,66h86l0,0v6c0,2.2-1.8,4-4,4H11c-2.2,0-4-1.8-4-4V66L7,66z"/>
<path class="st2" d="M11,8h78c2.2,0,4,1.8,4,4v54l0,0H7l0,0V12C7,9.8,8.8,8,11,8z"/>
<path d="M65,88H35c-1.1,0-2-0.9-2-2s0.9-2,2-2c2.8,0,5.3-1.7,6.4-4.3l1.8-4.4c0.3-0.8,1-1.3,1.9-1.3h10c0.8,0,1.6,0.5,1.9,1.3
	l1.8,4.4c1,2.6,3.6,4.3,6.4,4.3c1.1,0,2,0.9,2,2S66.1,88,65,88z M43.4,84h13.1c-0.7-0.9-1.3-1.8-1.7-2.8L53.7,78h-7.3l-1.3,3.2
	C44.7,82.2,44.1,83.1,43.4,84z"/>
<path d="M69,88H31c-1.1,0-2-0.9-2-2s0.9-2,2-2h38c1.1,0,2,0.9,2,2S70.1,88,69,88z"/>
<path d="M89,78H11c-3.3,0-6-2.7-6-6v-6c0-1.1,0.9-2,2-2h86c1.1,0,2,0.9,2,2v6C95,75.3,92.3,78,89,78z M9,68v4c0,1.1,0.9,2,2,2h78
	c1.1,0,2-0.9,2-2v-4H9z"/>
<path d="M93,68H7c-1.1,0-2-0.9-2-2V12c0-3.3,2.7-6,6-6h78c3.3,0,6,2.7,6,6v54C95,67.1,94.1,68,93,68z M9,64h82V12c0-1.1-0.9-2-2-2
	H11c-1.1,0-2,0.9-2,2V64z"/>
<path d="M82,38c-0.8,0-1.6-0.5-1.9-1.3L74,20.3l-6.1,16.4c-0.4,1-1.6,1.5-2.6,1c-0.9-0.4-1.4-1.5-1.1-2.4l6.7-18
	c0.3-0.8,1-1.3,1.9-1.3h2.6c0.8,0,1.6,0.5,1.9,1.3l6.7,18c0.4,1-0.1,2.2-1.2,2.6C82.5,38,82.2,38,82,38z"/>
<path d="M79,32H69c-1.1,0-2-0.9-2-2s0.9-2,2-2h10c1.1,0,2,0.9,2,2S80.1,32,79,32z"/>
<path d="M27,24c-1.1,0-2-0.9-2-2v-4c0-1.1,0.9-2,2-2s2,0.9,2,2v4C29,23.1,28.1,24,27,24z"/>
<path d="M37,24H17c-1.1,0-2-0.9-2-2s0.9-2,2-2h20c1.1,0,2,0.9,2,2S38.1,24,37,24z"/>
<path d="M35,38c-0.2,0-0.5,0-0.7-0.1c-7.1-2.4-12.4-8.3-14.1-15.5c-0.2-1.1,0.5-2.1,1.6-2.3c1.1-0.2,2.1,0.5,2.3,1.6
	c1.4,5.9,5.8,10.6,11.5,12.5c1,0.4,1.6,1.5,1.2,2.6C36.6,37.5,35.8,38,35,38z"/>
<path d="M19,38c-1.1,0-2-0.9-2-2c0-0.8,0.5-1.6,1.3-1.9c5.7-1.9,10.1-6.6,11.5-12.5c0.2-1.1,1.2-1.8,2.3-1.6
	c1.1,0.2,1.8,1.2,1.6,2.3c-1.7,7.3-7,13.1-14.1,15.5C19.5,38,19.2,38,19,38z"/>
<path d="M57,30H44c-1.1,0-2-0.9-2-2s0.9-2,2-2h13c1.1,0,2,0.9,2,2S58.1,30,57,30z"/>
<path d="M55,34c-1.1,0-2-0.9-2-2c0-0.5,0.2-1,0.6-1.4l2.6-2.6l-2.6-2.6c-0.7-0.8-0.6-2.1,0.2-2.8c0.7-0.6,1.9-0.6,2.6,0l4,4
	c0.8,0.8,0.8,2,0,2.8l-4,4C56,33.8,55.5,34,55,34z"/>
<path d="M45,48H17c-1.1,0-2-0.9-2-2s0.9-2,2-2h28c1.1,0,2,0.9,2,2S46.1,48,45,48z"/>
<path d="M45,58H17c-1.1,0-2-0.9-2-2s0.9-2,2-2h28c1.1,0,2,0.9,2,2S46.1,58,45,58z"/>
<path d="M83,48H55c-1.1,0-2-0.9-2-2s0.9-2,2-2h28c1.1,0,2,0.9,2,2S84.1,48,83,48z"/>
<path d="M83,58H55c-1.1,0-2-0.9-2-2s0.9-2,2-2h28c1.1,0,2,0.9,2,2S84.1,58,83,58z"/>
</svg>
