<?xml version="1.0" encoding="utf-8"?>
<!-- Generator: Adobe Illustrator 28.0.0, SVG Export Plug-In . SVG Version: 6.00 Build 0)  -->
<svg version="1.1" id="Layer_1" xmlns="http://www.w3.org/2000/svg" xmlns:xlink="http://www.w3.org/1999/xlink" x="0px" y="0px"
	 viewBox="0 0 100 100" style="enable-background:new 0 0 100 100;" xml:space="preserve">
<style type="text/css">
	.st0{fill:#49BEFF;}
</style>
<path class="st0" d="M30,7H20c-2.2,0-4,1.8-4,4v78c0,2.2,1.8,4,4,4h62c2.2,0,4-1.8,4-4V11c0-2.2-1.8-4-4-4H30z"/>
<path d="M82,95H20c-3.3,0-6-2.7-6-6V11c0-3.3,2.7-6,6-6h62c3.3,0,6,2.7,6,6v78C88,92.3,85.3,95,82,95z M20,9c-1.1,0-2,0.9-2,2v78
	c0,1.1,0.9,2,2,2h62c1.1,0,2-0.9,2-2V11c0-1.1-0.9-2-2-2H20z"/>
<path d="M20,19h-8c-1.1,0-2-0.9-2-2s0.9-2,2-2h8c1.1,0,2,0.9,2,2S21.1,19,20,19z"/>
<path d="M20,29h-8c-1.1,0-2-0.9-2-2s0.9-2,2-2h8c1.1,0,2,0.9,2,2S21.1,29,20,29z"/>
<path d="M20,75h-8c-1.1,0-2-0.9-2-2s0.9-2,2-2h8c1.1,0,2,0.9,2,2S21.1,75,20,75z"/>
<path d="M20,85h-8c-1.1,0-2-0.9-2-2s0.9-2,2-2h8c1.1,0,2,0.9,2,2S21.1,85,20,85z"/>
<path d="M20,47h-8c-1.1,0-2-0.9-2-2s0.9-2,2-2h8c1.1,0,2,0.9,2,2S21.1,47,20,47z"/>
<path d="M20,57h-8c-1.1,0-2-0.9-2-2s0.9-2,2-2h8c1.1,0,2,0.9,2,2S21.1,57,20,57z"/>
<path d="M48,42c-0.8,0-1.6-0.5-1.9-1.3L39,22.2l-7.1,18.5c-0.4,1-1.6,1.5-2.6,1.2c-1-0.4-1.5-1.6-1.2-2.6l7.7-20
	c0.3-0.8,1-1.3,1.9-1.3h2.6c0.8,0,1.6,0.5,1.9,1.3l7.7,20c0.4,1-0.1,2.2-1.1,2.6C48.5,42,48.2,42,48,42z"/>
<path d="M44,34H34c-1.1,0-2-0.9-2-2c0-1.1,0.9-2,2-2h10c1.1,0,2,0.9,2,2C46,33.1,45.1,34,44,34z"/>
<path d="M40,56c-1.1,0-2-0.9-2-2v-4c0-1.1,0.9-2,2-2s2,0.9,2,2v4C42,55.1,41.1,56,40,56z"/>
<path d="M50,56H30c-1.1,0-2-0.9-2-2s0.9-2,2-2h20c1.1,0,2,0.9,2,2S51.1,56,50,56z"/>
<path d="M48,72c-0.2,0-0.5,0-0.7-0.1c-12.1-4.4-14-17.1-14.1-17.6c-0.2-1.1,0.6-2.1,1.7-2.3s2.1,0.6,2.3,1.7
	c0.1,0.5,1.7,10.8,11.5,14.4c1,0.4,1.6,1.5,1.2,2.6C49.6,71.5,48.9,72,48,72z"/>
<path d="M32,72c-1.1,0-2-0.9-2-2c0-0.8,0.5-1.6,1.3-1.9c9.8-3.6,11.4-14,11.5-14.4c0.2-1.1,1.2-1.9,2.3-1.7s1.9,1.2,1.7,2.3
	c-0.1,0.5-2,13.2-14.1,17.6C32.5,72,32.2,72,32,72z"/>
<path d="M70,22H58c-1.1,0-2-0.9-2-2s0.9-2,2-2h12c1.1,0,2,0.9,2,2S71.1,22,70,22z"/>
<path d="M76,32H58c-1.1,0-2-0.9-2-2s0.9-2,2-2h18c1.1,0,2,0.9,2,2S77.1,32,76,32z"/>
<path d="M76,42H58c-1.1,0-2-0.9-2-2s0.9-2,2-2h18c1.1,0,2,0.9,2,2S77.1,42,76,42z"/>
<path d="M70,52H58c-1.1,0-2-0.9-2-2s0.9-2,2-2h12c1.1,0,2,0.9,2,2S71.1,52,70,52z"/>
<path d="M76,62H58c-1.1,0-2-0.9-2-2s0.9-2,2-2h18c1.1,0,2,0.9,2,2S77.1,62,76,62z"/>
<path d="M76,72H58c-1.1,0-2-0.9-2-2s0.9-2,2-2h18c1.1,0,2,0.9,2,2S77.1,72,76,72z"/>
<path d="M76,82H30c-1.1,0-2-0.9-2-2s0.9-2,2-2h46c1.1,0,2,0.9,2,2S77.1,82,76,82z"/>
</svg>
